<svg width="32" height="32" viewBox="0 0 32 32" fill="none" xmlns="http://www.w3.org/2000/svg">
<path d="M5.40103 11.8937C5.42784 11.5595 5.57953 11.2478 5.82587 11.0204C6.07222 10.7931 6.39515 10.6669 6.73036 10.667H25.269C25.6042 10.6669 25.9272 10.7931 26.1735 11.0204C26.4199 11.2478 26.5715 11.5595 26.5984 11.8937L27.7677 26.4537C27.7971 26.8206 27.7503 27.1896 27.6301 27.5376C27.51 27.8855 27.3191 28.2048 27.0694 28.4753C26.8198 28.7459 26.5169 28.9618 26.1797 29.1095C25.8426 29.2572 25.4785 29.3336 25.1104 29.3337H6.88902C6.52092 29.3336 6.15683 29.2572 5.81966 29.1095C5.4825 28.9618 5.17957 28.7459 4.92995 28.4753C4.68033 28.2048 4.48943 27.8855 4.36925 27.5376C4.24908 27.1896 4.20224 26.8206 4.23169 26.4537L5.39969 11.8937H5.40103Z" stroke="#1F1F1F" stroke-width="2" stroke-linecap="round" stroke-linejoin="round"/>
<path d="M21.3332 14.667V8.00033C21.3332 6.58584 20.7713 5.22928 19.7711 4.22909C18.7709 3.2289 17.4143 2.66699 15.9998 2.66699C14.5853 2.66699 13.2288 3.2289 12.2286 4.22909C11.2284 5.22928 10.6665 6.58584 10.6665 8.00033V14.667" stroke="#1F1F1F" stroke-width="2" stroke-linecap="round" stroke-linejoin="round"/>
</svg>
