<svg width="32" height="32" viewBox="0 0 32 32" fill="none" xmlns="http://www.w3.org/2000/svg">
<path d="M3.14286 3H13.8571C14.4255 3 14.9705 3.15804 15.3724 3.43934C15.7742 3.72064 16 4.10218 16 4.5C16 4.89782 15.7742 5.27936 15.3724 5.56066C14.9705 5.84196 14.4255 6 13.8571 6H3.14286C2.57454 6 2.02949 5.84196 1.62763 5.56066C1.22577 5.27936 1 4.89782 1 4.5C1 4.10218 1.22577 3.72064 1.62763 3.43934C2.02949 3.15804 2.57454 3 3.14286 3ZM18.1429 27H28.8571C29.4255 27 29.9705 27.158 30.3724 27.4393C30.7742 27.7206 31 28.1022 31 28.5C31 28.8978 30.7742 29.2794 30.3724 29.5607C29.9705 29.842 29.4255 30 28.8571 30H18.1429C17.5745 30 17.0295 29.842 16.6276 29.5607C16.2258 29.2794 16 28.8978 16 28.5C16 28.1022 16.2258 27.7206 16.6276 27.4393C17.0295 27.158 17.5745 27 18.1429 27ZM3.14286 9H28.8571C29.4255 9 29.9705 9.15804 30.3724 9.43934C30.7742 9.72064 31 10.1022 31 10.5C31 10.8978 30.7742 11.2794 30.3724 11.5607C29.9705 11.842 29.4255 12 28.8571 12H3.14286C2.57454 12 2.02949 11.842 1.62763 11.5607C1.22577 11.2794 1 10.8978 1 10.5C1 10.1022 1.22577 9.72064 1.62763 9.43934C2.02949 9.15804 2.57454 9 3.14286 9Z" fill="#1F1F1F"/>
<path d="M1.34806 19.3051C1.35463 19.1795 1.36119 19.0728 1.36119 18.9849C1.36776 18.8279 1.37433 18.6647 1.38089 18.5014C1.38746 18.3382 1.38746 18.1309 1.38746 17.8798C1.38746 17.6349 1.3809 17.3586 1.36776 17.0698C1.35463 16.7684 1.34149 16.5549 1.33493 16.4356C1.32836 16.3163 1.31522 16.1907 1.30209 16.0463C1.28896 15.9019 1.27582 15.7951 1.26925 15.726C1.26269 15.6507 1.24955 15.5628 1.23642 15.4686L1.22328 15.3305C1.21672 15.2677 1.23642 15.2112 1.28239 15.1609C1.32836 15.1107 1.39403 15.0856 1.46627 15.0793C1.53851 15.073 1.61074 15.0919 1.66985 15.1358C1.72895 15.1798 1.76179 15.23 1.76836 15.2991L1.78149 15.4372C1.79463 15.5314 1.80776 15.613 1.81433 15.6821C1.82089 15.7512 1.83403 15.8642 1.84716 16.0086C1.8603 16.153 1.87343 16.2912 1.88 16.423C1.88657 16.5486 1.8997 16.7558 1.91283 17.0509C1.92597 17.3586 1.93253 17.6349 1.93253 17.8923C1.93253 18.1247 1.92597 18.3319 1.9194 18.5014C1.9588 18.4637 1.98507 18.4323 2.01134 18.4009C2.08358 18.3382 2.16239 18.2754 2.24776 18.2126C2.33313 18.1498 2.43821 18.0807 2.57612 18.0054C2.71403 17.9363 2.82567 17.8798 2.91104 17.8484C3.02268 17.817 3.17373 17.7919 3.36418 17.773C3.56119 17.7605 3.70567 17.7668 3.81731 17.7919C3.91582 17.8107 4.00776 17.8358 4.0997 17.8672C4.1982 17.9112 4.30328 17.9802 4.42805 18.0744C4.54626 18.1749 4.64477 18.2691 4.71044 18.357C4.77612 18.4512 4.83522 18.5516 4.88119 18.6584C4.93373 18.7777 4.97313 18.9786 5.00597 19.2737C5.04537 19.5751 5.05194 19.7886 5.0388 19.9079C5.03223 20.0335 5.01253 20.1465 4.9797 20.2596C4.94029 20.3726 4.89432 20.4793 4.84179 20.5798C4.78925 20.6865 4.71044 20.7996 4.61194 20.9189C4.51343 21.0382 4.42149 21.1323 4.33611 21.1951C4.25074 21.2579 4.12597 21.3333 3.95522 21.4275C3.78447 21.5154 3.64656 21.5719 3.54806 21.6033C3.45612 21.6284 3.35104 21.6535 3.2197 21.6723C3.10149 21.6912 3.00298 21.7037 2.92418 21.71C2.8585 21.7163 2.79283 21.7226 2.73373 21.7289C2.66149 21.7351 2.56298 21.7351 2.43821 21.7289C2.3003 21.7226 2.18865 21.7037 2.10328 21.6723L2.02448 21.641C1.95224 21.6221 1.8997 21.5782 1.86686 21.5216C1.83403 21.4589 1.83403 21.3961 1.8603 21.3333C1.88657 21.2705 1.93254 21.2265 2.00477 21.2014C2.07701 21.1763 2.14269 21.1763 2.21492 21.2014L2.30686 21.2328C2.3397 21.2391 2.39224 21.2454 2.46448 21.2516C2.55642 21.2516 2.62866 21.2516 2.68119 21.2516C2.73373 21.2454 2.7994 21.2391 2.87164 21.2328C2.93731 21.2265 3.02268 21.214 3.12119 21.2014C3.22627 21.1826 3.31164 21.1637 3.37731 21.1449C3.43641 21.1323 3.53492 21.0884 3.67283 21.0193C3.81731 20.944 3.91582 20.8812 3.97492 20.8435C4.02746 20.7996 4.09313 20.7305 4.17194 20.6426C4.25074 20.5547 4.30985 20.473 4.34925 20.3914C4.38865 20.3161 4.41492 20.2344 4.44119 20.1465C4.46089 20.0649 4.48059 19.9707 4.50029 19.8702C4.50686 19.7698 4.49373 19.594 4.46746 19.3302C4.42806 19.0665 4.39522 18.897 4.36895 18.8216C4.33611 18.7463 4.30328 18.6709 4.25731 18.6082C4.21134 18.5516 4.14567 18.4888 4.06686 18.4198C3.98149 18.3633 3.92238 18.3193 3.87641 18.3005C3.82388 18.2754 3.76477 18.2565 3.70567 18.244C3.65313 18.2377 3.56119 18.2377 3.42328 18.244C3.28537 18.2565 3.19343 18.2754 3.14089 18.2942C3.06865 18.313 2.97671 18.3507 2.87164 18.4135C2.76657 18.47 2.68119 18.5265 2.62209 18.5705C2.55641 18.6207 2.48418 18.6772 2.41851 18.7275C2.36597 18.7777 2.28059 18.8907 2.16239 19.0602C2.12298 19.1042 2.09015 19.1482 2.06388 19.1858C1.99164 19.2926 1.9391 19.3742 1.90627 19.4307C1.8997 19.5061 1.89313 19.5877 1.89313 19.6756C1.87343 19.9582 1.85373 20.1842 1.83403 20.3537C1.82089 20.5233 1.80776 20.6551 1.79463 20.743C1.78149 20.8372 1.76836 20.944 1.75522 21.0758C1.74209 21.214 1.72895 21.3082 1.72239 21.3584C1.71582 21.4149 1.69612 21.4903 1.66328 21.5844C1.65672 21.5907 1.64358 21.597 1.63701 21.6096C1.62388 21.6221 1.60418 21.6347 1.56478 21.6661C1.52537 21.6912 1.49254 21.7163 1.4597 21.7351C1.42687 21.754 1.38746 21.7728 1.34149 21.7854C1.29552 21.7979 1.25612 21.8042 1.22328 21.7979C1.19045 21.7917 1.15761 21.7791 1.13134 21.7477C1.10507 21.7163 1.08537 21.6786 1.07224 21.6221C1.0591 21.5656 1.05254 21.5028 1.0394 21.4337C1.02627 21.3647 1.0197 21.2956 1.01313 21.2391C1.00657 21.17 1 21.0947 1 21.0193C1 20.944 1.00657 20.7996 1.0197 20.5861C1.03283 20.3663 1.05254 20.203 1.0788 20.1026C1.09851 20.0021 1.12478 19.9016 1.15761 19.8075C1.19045 19.7133 1.22328 19.6191 1.26925 19.5186C1.27582 19.437 1.30866 19.3742 1.34806 19.3051Z" fill="#1F1F1F"/>
<path d="M8.6566 21.9028C8.60406 21.9656 8.53839 22.0032 8.45302 22.0095L8.28227 22.0284C8.13123 22.0409 7.94735 22.0346 7.7175 21.997C7.49421 21.9593 7.29063 21.8965 7.10675 21.8211C6.936 21.7458 6.79153 21.6642 6.67988 21.5888C6.56168 21.5009 6.41063 21.3628 6.23988 21.1556C6.06914 20.9546 5.95093 20.7914 5.89182 20.6658C5.82615 20.5339 5.77362 20.3079 5.73421 19.9877C5.68824 19.6674 5.67511 19.4414 5.70138 19.3032C5.73421 19.1714 5.79332 18.9956 5.88526 18.7758C5.9772 18.556 6.08227 18.3676 6.18735 18.2107C6.29899 18.06 6.39749 17.9344 6.496 17.8465C6.59451 17.7523 6.74555 17.6518 6.9557 17.5325C7.17899 17.4007 7.44824 17.3128 7.7569 17.2688C8.05899 17.2249 8.27571 17.2123 8.42018 17.2311C8.55809 17.2437 8.74854 17.2939 8.99153 17.3881C9.24108 17.4823 9.42496 17.5639 9.54317 17.633C9.66138 17.7021 9.78615 17.8088 9.9175 17.9407C10.0423 18.0725 10.1408 18.1981 10.1999 18.3049C10.2656 18.4179 10.3312 18.5937 10.3903 18.8323C10.4429 19.0709 10.4691 19.297 10.4691 19.4979C10.4691 19.6863 10.456 19.8432 10.4363 19.9688C10.4232 20.1007 10.3706 20.2765 10.2918 20.5088C10.2065 20.7411 10.1145 20.9358 10.0094 21.0865C9.90436 21.2435 9.75989 21.3879 9.56944 21.5198C9.37899 21.6579 9.23451 21.7458 9.12944 21.7835C9.0375 21.8337 8.87332 21.8714 8.6566 21.9028ZM7.33003 21.3879C7.42197 21.3314 7.50735 21.3125 7.59929 21.3377L7.7766 21.3942C7.86854 21.4256 7.96705 21.4444 8.07869 21.4507C8.18376 21.4632 8.32824 21.457 8.51869 21.4318C8.70914 21.4067 8.83391 21.3816 8.89959 21.3565C8.96526 21.3314 9.07033 21.2623 9.21481 21.1618C9.35929 21.0551 9.46436 20.9484 9.54317 20.8416C9.62854 20.7286 9.70078 20.5779 9.76645 20.3832C9.83869 20.1823 9.88466 20.0253 9.90436 19.9249C9.9175 19.8181 9.92406 19.68 9.92406 19.5042C9.92406 19.3409 9.90436 19.1525 9.85839 18.9453C9.81242 18.7444 9.76645 18.6063 9.72048 18.5372C9.67451 18.4618 9.60227 18.3676 9.50377 18.2609C9.40526 18.1542 9.31332 18.0788 9.23451 18.0286C9.15571 17.9783 9.01123 17.9156 8.80108 17.8402C8.59093 17.7711 8.43988 17.7272 8.34794 17.7209C8.26257 17.7083 8.09839 17.7146 7.85541 17.7523C7.62556 17.79 7.42854 17.859 7.27093 17.9469C7.10018 18.0474 6.97541 18.1228 6.90973 18.1793C6.8375 18.2483 6.75212 18.3488 6.66018 18.4807C6.56824 18.6063 6.48287 18.7632 6.40406 18.9579C6.31869 19.1463 6.27272 19.297 6.25959 19.3974C6.24645 19.4916 6.25302 19.6737 6.27929 19.9437C6.31869 20.22 6.35809 20.3958 6.40406 20.4837C6.45003 20.5779 6.54854 20.7098 6.69958 20.8856C6.84406 21.0551 6.9557 21.1681 7.03451 21.2309C7.11332 21.2686 7.21182 21.3251 7.33003 21.3879Z" fill="#1F1F1F"/>
<path d="M14.1156 21.9028C14.063 21.9656 13.9974 22.0032 13.912 22.0095L13.7413 22.0284C13.5902 22.0409 13.4063 22.0346 13.1765 21.997C12.9532 21.9593 12.7496 21.8965 12.5657 21.8211C12.395 21.7458 12.2505 21.6642 12.1389 21.5888C12.0207 21.5009 11.8696 21.3628 11.6989 21.1556C11.5281 20.9546 11.4099 20.7914 11.3508 20.6658C11.2851 20.5339 11.2326 20.3079 11.1932 19.9877C11.1472 19.6674 11.1341 19.4414 11.1604 19.3032C11.1932 19.1714 11.2523 18.9956 11.3442 18.7758C11.4362 18.556 11.5413 18.3676 11.6463 18.2107C11.758 18.06 11.8565 17.9344 11.955 17.8465C12.0535 17.7523 12.2045 17.6518 12.4147 17.5325C12.638 17.4007 12.9072 17.3128 13.2159 17.2688C13.518 17.2249 13.7347 17.2123 13.8792 17.2311C14.0171 17.2437 14.2075 17.2939 14.4505 17.3881C14.7001 17.4823 14.8839 17.5639 15.0022 17.633C15.1204 17.7021 15.2451 17.8088 15.3765 17.9407C15.5013 18.0725 15.5998 18.1981 15.6589 18.3049C15.7245 18.4179 15.7902 18.5937 15.8493 18.8323C15.9019 19.0709 15.9281 19.297 15.9281 19.4979C15.9281 19.6863 15.915 19.8432 15.8953 19.9688C15.8822 20.1007 15.8296 20.2765 15.7508 20.5088C15.6654 20.7411 15.5735 20.9358 15.4684 21.0865C15.3633 21.2435 15.2189 21.3879 15.0284 21.5198C14.838 21.6579 14.6935 21.7458 14.5884 21.7835C14.4965 21.8337 14.3323 21.8714 14.1156 21.9028ZM12.789 21.3879C12.881 21.3314 12.9663 21.3125 13.0583 21.3377L13.2356 21.3942C13.3275 21.4256 13.426 21.4444 13.5377 21.4507C13.6427 21.4632 13.7872 21.457 13.9777 21.4318C14.1681 21.4067 14.2929 21.3816 14.3586 21.3565C14.4242 21.3314 14.5293 21.2623 14.6738 21.1618C14.8183 21.0551 14.9233 20.9484 15.0022 20.8416C15.0875 20.7286 15.1598 20.5779 15.2254 20.3832C15.2977 20.1823 15.3436 20.0253 15.3633 19.9249C15.3765 19.8181 15.383 19.68 15.383 19.5042C15.383 19.3409 15.3633 19.1525 15.3174 18.9453C15.2714 18.7444 15.2254 18.6063 15.1795 18.5372C15.1335 18.4618 15.0613 18.3676 14.9627 18.2609C14.8642 18.1542 14.7723 18.0788 14.6935 18.0286C14.6147 17.9783 14.4702 17.9156 14.2601 17.8402C14.0499 17.7711 13.8989 17.7272 13.8069 17.7209C13.7216 17.7083 13.5574 17.7146 13.3144 17.7523C13.0845 17.79 12.8875 17.859 12.7299 17.9469C12.5592 18.0474 12.4344 18.1228 12.3687 18.1793C12.2965 18.2483 12.2111 18.3488 12.1192 18.4807C12.0272 18.6063 11.9419 18.7632 11.863 18.9579C11.7777 19.1463 11.7317 19.297 11.7186 19.3974C11.7054 19.4916 11.712 19.6737 11.7383 19.9437C11.7777 20.22 11.8171 20.3958 11.863 20.4837C11.909 20.5779 12.0075 20.7098 12.1586 20.8856C12.303 21.0551 12.4147 21.1681 12.4935 21.2309C12.5723 21.2686 12.6708 21.3251 12.789 21.3879Z" fill="#1F1F1F"/>
<path d="M17.2554 20.3379C17.2554 20.3818 17.2554 20.4321 17.2554 20.476C17.262 20.5891 17.2686 20.6958 17.2752 20.8088C17.2817 20.9218 17.2883 21.0223 17.2883 21.1102C17.2883 21.2044 17.2817 21.3049 17.2752 21.4116V21.5874C17.2686 21.6502 17.2357 21.7067 17.1832 21.7507C17.1307 21.7946 17.065 21.8198 16.9928 21.8135C16.9205 21.8072 16.8548 21.7821 16.7957 21.7381C16.7366 21.6879 16.7169 21.6314 16.7235 21.5686V21.4053C16.7301 21.2923 16.7366 21.1981 16.7366 21.1102C16.7366 21.0286 16.7301 20.9281 16.7235 20.8277C16.7169 20.7209 16.7104 20.6142 16.7038 20.4949C16.7038 20.3693 16.6972 20.1558 16.6841 19.8481C16.671 19.6221 16.6644 19.44 16.6644 19.3018C16.6578 19.2265 16.6513 19.1386 16.6447 19.0381C16.6316 18.7618 16.625 18.5609 16.625 18.4228C16.625 18.2846 16.6316 18.1465 16.6447 18.0146C16.6447 18.0084 16.6447 17.9958 16.6447 17.9832C16.6447 17.9707 16.6513 17.9456 16.6644 17.9142C16.6775 17.8828 16.6841 17.8514 16.6972 17.82C16.7104 17.7886 16.7301 17.7635 16.7563 17.7384C16.7826 17.7132 16.8089 17.6944 16.8417 17.6818C16.8746 17.6693 16.9074 17.663 16.9534 17.6693C16.9993 17.6756 17.0453 17.6944 17.0978 17.7258C17.1832 17.776 17.2292 17.8263 17.2489 17.8702C17.2686 17.9142 17.2686 17.9456 17.2423 17.9707L17.2095 18.0021C17.2095 18.1088 17.2095 18.2344 17.2095 18.3851C17.2095 18.5358 17.2095 18.6677 17.2095 18.7932C17.2095 18.9125 17.2095 19.0381 17.2095 19.17C17.216 19.2014 17.2226 19.2391 17.2226 19.2893C17.2292 19.3835 17.2357 19.4525 17.2423 19.5153C17.3408 19.2956 17.4131 19.1323 17.4656 19.0256C17.5247 18.9125 17.5904 18.8058 17.656 18.6928C17.7217 18.5735 17.8465 18.3977 18.0172 18.1653C18.2077 17.9204 18.339 17.7635 18.4113 17.6944C18.5032 17.6253 18.6083 17.5625 18.7265 17.506L18.8644 17.4558C18.9301 17.4244 19.0023 17.4181 19.0811 17.4432C19.1534 17.4683 19.2059 17.506 19.2387 17.5625C19.2716 17.619 19.2716 17.6818 19.2453 17.7509C19.219 17.8137 19.1731 17.8639 19.1074 17.889L18.9695 17.9456C18.9038 17.9707 18.8447 18.0021 18.7987 18.0335C18.7528 18.0774 18.6477 18.2093 18.4835 18.4165C18.3193 18.6425 18.2077 18.8058 18.1486 18.9063C18.0895 19.013 18.0304 19.1135 17.9778 19.2202C17.9253 19.327 17.8465 19.4965 17.7414 19.7288C17.6166 19.9863 17.5116 20.1558 17.4262 20.25C17.3671 20.2814 17.3146 20.3128 17.2554 20.3379Z" fill="#1F1F1F"/>
<path d="M20.6695 21.8398C20.6104 21.8837 20.5447 21.9026 20.4725 21.9026C20.4002 21.9026 20.3346 21.8712 20.282 21.8272C20.2295 21.777 20.2032 21.7267 20.2032 21.6639L20.2163 21.5698C20.2163 21.507 20.2163 21.4002 20.2163 21.2495C20.2163 21.0988 20.2163 20.9732 20.2163 20.8791C20.2163 20.7912 20.2098 20.6656 20.2032 20.5086C20.1966 20.3453 20.1835 20.1507 20.1704 19.9309C20.1507 19.7049 20.131 19.4914 20.1178 19.2905C20.1047 19.0895 20.0981 18.9325 20.085 18.807C20.0719 18.6814 20.0587 18.5621 20.0456 18.4302C20.0325 18.2984 20.0193 18.2042 20.0128 18.1539C20.0128 18.1163 20.0062 18.0723 19.9931 18.0221L19.9799 17.9342C19.9668 17.8777 19.9799 17.8211 20.0259 17.7709C20.0719 17.7144 20.131 17.683 20.2032 17.6767C20.2755 17.6642 20.3477 17.683 20.4134 17.7207C20.479 17.7584 20.5119 17.8086 20.5184 17.8714L20.5381 17.9467C20.5447 18.0095 20.5513 18.066 20.5578 18.1163C20.5578 18.1602 20.571 18.2481 20.5907 18.38C20.6038 18.5118 20.6169 18.6437 20.6301 18.7693C20.6432 18.8949 20.6563 19.0581 20.6695 19.2591C20.676 19.46 20.6892 19.6735 20.7023 19.8932C20.722 20.1193 20.7417 20.3139 20.7483 20.4772C20.7549 20.6405 20.7614 20.766 20.7614 20.8602C20.7614 20.9544 20.7614 21.08 20.7614 21.237C20.7614 21.3939 20.7614 21.507 20.7614 21.5698L20.7483 21.6765C20.7549 21.7393 20.7286 21.7958 20.6695 21.8398Z" fill="#1F1F1F"/>
<path d="M21.4599 17.5979C21.4861 17.5351 21.5321 17.4911 21.5978 17.466C21.6635 17.4409 21.7357 17.4409 21.8145 17.4597C21.8867 17.4848 21.9393 17.5225 21.9721 17.579L22.0837 17.8051C22.1691 17.9683 22.2545 18.1693 22.3399 18.4016C22.4252 18.6151 22.4909 18.7846 22.5434 18.8976C22.6091 19.0169 22.7011 19.1802 22.8127 19.3874C22.9309 19.5946 23.0688 19.8395 23.2199 20.1095C23.3709 20.3858 23.476 20.5616 23.5351 20.6495C23.5942 20.7437 23.6533 20.8316 23.7058 20.9132C23.7518 20.9823 23.824 21.0702 23.9291 21.1707C23.9488 21.1895 23.9751 21.2083 23.9948 21.2272C24.0276 21.1895 24.0539 21.1455 24.0867 21.1016C24.2115 20.9132 24.2969 20.7751 24.3363 20.6809C24.3823 20.5679 24.4282 20.4548 24.4742 20.3293C24.5267 20.1974 24.6121 19.9651 24.7303 19.626C24.8551 19.2932 24.947 19.0672 24.9996 18.9416C25.0521 18.816 25.1112 18.6653 25.1769 18.4895C25.2491 18.32 25.3017 18.2006 25.3345 18.1253L25.3805 18.0248C25.4002 17.9683 25.4527 17.9244 25.5184 17.8993C25.5906 17.8741 25.6629 17.8741 25.7351 17.893C25.8073 17.9181 25.8599 17.9558 25.8861 18.0186C25.919 18.0813 25.919 18.1379 25.8861 18.2006L25.8533 18.3011C25.8205 18.3639 25.7679 18.4832 25.6957 18.6527C25.63 18.8286 25.5709 18.973 25.5184 19.0923C25.4724 19.2116 25.3805 19.4376 25.2557 19.7767C25.1309 20.1158 25.039 20.3481 24.9996 20.4737C24.947 20.6055 24.9011 20.7248 24.8551 20.8379C24.8091 20.9634 24.7172 21.133 24.5727 21.3465C24.5661 21.359 24.553 21.3841 24.5267 21.4155C24.507 21.4469 24.4873 21.4721 24.4742 21.4846C24.4611 21.4972 24.4414 21.5223 24.4151 21.56C24.3888 21.5976 24.3691 21.6228 24.356 21.6353C24.3429 21.6479 24.3166 21.6667 24.2837 21.6918C24.2509 21.7169 24.2181 21.7295 24.1918 21.7358C24.1655 21.7421 24.1327 21.7483 24.0933 21.7609C24.0539 21.7735 24.0145 21.7734 23.9751 21.7483C23.8372 21.7358 23.6927 21.6479 23.5351 21.4909C23.3906 21.3653 23.2921 21.2586 23.233 21.1581C23.1739 21.0765 23.1148 20.9886 23.0557 20.8944C22.99 20.7939 22.8784 20.6055 22.7273 20.3167C22.5763 20.0404 22.4449 19.8018 22.3202 19.5946C22.202 19.3874 22.11 19.2179 22.0509 19.0986C21.9852 18.9667 21.9064 18.7846 21.8145 18.5523C21.7423 18.3325 21.6634 18.1504 21.5912 18.006L21.4664 17.78C21.4336 17.7234 21.4336 17.6606 21.4599 17.5979Z" fill="#1F1F1F"/>
<path d="M30.8203 20.5986H30.8071C30.7612 20.6676 30.7217 20.7304 30.6955 20.787C30.6561 20.8372 30.6167 20.8937 30.5707 20.9502C30.5116 21.0256 30.3803 21.1574 30.1767 21.3395C29.9731 21.5279 29.8155 21.6535 29.7038 21.71C29.5988 21.7665 29.4937 21.8167 29.3886 21.8544C29.2835 21.8921 29.1785 21.9235 29.0734 21.9549C28.9618 21.98 28.8304 21.9988 28.6794 22.0051C28.5283 22.0051 28.3576 21.98 28.1737 21.9297C28.0095 21.8795 27.8847 21.8293 27.7994 21.7916C27.714 21.7539 27.6286 21.71 27.5432 21.6535C27.4579 21.6032 27.3725 21.5279 27.2871 21.44C27.1886 21.3332 27.1098 21.2014 27.0507 21.0318C26.9916 20.8749 26.9588 20.7493 26.9522 20.6488C26.9456 20.5546 26.9522 20.4479 26.9719 20.316C26.9916 20.1904 27.031 20.09 27.0704 20.0021C27.1098 19.9079 27.1886 19.7886 27.3068 19.6379C27.425 19.4809 27.5301 19.3679 27.622 19.3051C27.7074 19.2486 27.7928 19.1921 27.8913 19.1418C27.9898 19.0916 28.1146 19.0288 28.2722 18.966C28.4429 18.9032 28.6465 18.8593 28.8698 18.8467C29.0931 18.8279 29.277 18.8342 29.4083 18.8781C29.5462 18.9221 29.7367 19.0414 29.9797 19.2297C30.0125 19.2549 30.0388 19.28 30.0716 19.3051C30.0191 19.1418 29.9797 19.01 29.9468 18.9158C29.9009 18.8028 29.8352 18.6646 29.7432 18.4951C29.6579 18.3318 29.5791 18.2062 29.5068 18.1121C29.4412 18.0179 29.3623 17.9362 29.2835 17.8672C29.2179 17.8107 29.0865 17.7353 28.9026 17.6474C28.7122 17.5595 28.548 17.503 28.4101 17.4841C28.2591 17.459 28.1409 17.4465 28.0489 17.4465C27.9504 17.4402 27.8585 17.4402 27.7665 17.459C27.6943 17.459 27.5498 17.4967 27.3528 17.5658C27.2083 17.6223 27.1098 17.6725 27.0573 17.7039L26.9982 17.7793C26.9522 17.8295 26.8931 17.8672 26.8209 17.8797C26.7486 17.8923 26.6764 17.8797 26.6107 17.8421C26.545 17.8044 26.5122 17.7479 26.4991 17.6851C26.4859 17.6223 26.4991 17.5595 26.5385 17.5093L26.6173 17.4214C26.6895 17.3209 26.8668 17.2267 27.1492 17.1262C27.4053 17.0321 27.5958 16.9881 27.7206 16.9818C27.8322 16.9693 27.9438 16.963 28.0555 16.9693C28.1803 16.9693 28.3379 16.9881 28.5152 17.0195C28.7056 17.0509 28.9158 17.12 29.1522 17.233C29.3886 17.3397 29.5659 17.4402 29.6776 17.5344C29.7826 17.6286 29.8812 17.729 29.9731 17.8483C30.065 17.9676 30.157 18.1183 30.2555 18.3067C30.354 18.4951 30.4262 18.6521 30.4722 18.7776C30.5182 18.9032 30.5773 19.079 30.6495 19.3176C30.7218 19.5374 30.7809 19.6944 30.8203 19.7886C30.8531 19.889 30.8794 19.9895 30.9122 20.09C30.945 20.1904 30.9647 20.2595 30.9779 20.3035C31.0173 20.3537 31.0041 20.4228 30.945 20.5107L30.8203 20.5986ZM30.3474 20.3537C30.3014 20.2909 30.262 20.2281 30.2226 20.1779C30.1701 20.1088 30.111 20.0335 30.0453 19.9518C29.9797 19.8765 29.8418 19.7509 29.6316 19.5876C29.428 19.4307 29.2967 19.3428 29.2244 19.3239C29.1719 19.3114 29.0734 19.3051 28.9223 19.3114C28.7582 19.3239 28.6203 19.3553 28.5086 19.3993C28.3707 19.4495 28.2656 19.4997 28.1934 19.5437C28.1212 19.5876 28.0489 19.6316 27.9767 19.6755C27.9241 19.7132 27.8519 19.7949 27.76 19.9079C27.668 20.0272 27.6089 20.1088 27.5826 20.1653C27.5629 20.2218 27.5367 20.3035 27.517 20.3976C27.5038 20.4856 27.4973 20.5546 27.5038 20.6111C27.5038 20.6676 27.5235 20.7556 27.5695 20.8749C27.6155 20.9879 27.6615 21.0695 27.714 21.1197C27.7731 21.1825 27.8322 21.2328 27.8847 21.2642C27.9373 21.2956 27.9964 21.327 28.0555 21.3583C28.1146 21.3897 28.2197 21.4211 28.3576 21.4588C28.4758 21.4965 28.5809 21.5153 28.6728 21.5153C28.7779 21.509 28.8632 21.4965 28.9289 21.4839C29.0012 21.4651 29.08 21.44 29.1653 21.4086C29.2507 21.3772 29.3295 21.3395 29.4149 21.3018C29.4871 21.2579 29.6119 21.1574 29.7892 21.0004C29.9665 20.8372 30.0782 20.7304 30.1176 20.6865C30.157 20.63 30.1898 20.5735 30.2161 20.5295C30.2423 20.4981 30.2817 20.4353 30.3474 20.3537Z" fill="#1F1F1F"/>
<path d="M20.4476 16.1765C20.2046 16.0761 20.0207 15.9191 19.85 15.7244C19.7909 15.6554 19.4625 15.3226 19.5282 15.2033C19.561 15.1468 19.7383 15.1782 19.7843 15.2033C19.8368 15.2284 19.8894 15.2786 19.9288 15.3226C19.9945 15.3979 20.0404 15.4858 20.0864 15.5738C20.1783 15.7558 20.2506 15.9505 20.3754 16.1138C20.4476 16.2142 20.6183 16.12 20.5461 16.0196C20.3622 15.7684 20.29 15.4544 20.0864 15.2096C19.9354 15.0275 19.6267 14.8642 19.41 15.0463C19.2064 15.2096 19.3969 15.4607 19.5151 15.6177C19.7383 15.9128 19.9879 16.1828 20.3425 16.3335C20.4673 16.39 20.5658 16.2268 20.4476 16.1765Z" fill="#1F1F1F"/>
<path d="M19.5367 15.354C19.7009 15.6366 19.9111 15.9003 20.1146 16.1578C20.1935 16.2519 20.3642 16.1578 20.2854 16.0636C20.0752 15.8061 19.8717 15.5424 19.7075 15.2598C19.6418 15.1531 19.4711 15.2473 19.5367 15.354Z" fill="#1F1F1F"/>
<path d="M20.3988 16.3502C20.9373 16.3251 21.4627 16.1556 21.9618 15.9609C22.126 15.8981 22.474 15.7914 22.4346 15.5653C22.3295 14.9939 20.7337 15.9107 20.5104 15.9923C20.3922 16.0363 20.4448 16.2184 20.563 16.1744C20.806 16.0865 21.0292 15.9735 21.2591 15.8667C21.4036 15.7977 22.0012 15.4649 22.1719 15.603C22.2376 15.6533 22.1916 15.6533 22.1128 15.6909C22.0669 15.716 22.0143 15.7349 21.9618 15.76C21.837 15.8102 21.7057 15.8542 21.5809 15.9044C21.2 16.0363 20.8125 16.1493 20.3988 16.1681C20.274 16.1681 20.2675 16.3565 20.3988 16.3502Z" fill="#1F1F1F"/>
<path d="M21.9822 15.6325C21.5619 15.8146 21.1285 15.9653 20.695 16.1097C20.5768 16.1474 20.6294 16.3295 20.7476 16.2918C21.2007 16.1349 21.6473 15.9779 22.0873 15.7958C22.1989 15.7456 22.0938 15.5823 21.9822 15.6325Z" fill="#1F1F1F"/>
</svg>
