<svg width="116" height="28" viewBox="0 0 116 28" fill="none" xmlns="http://www.w3.org/2000/svg">
<path d="M0.399551 23.3865C1.19955 17.1865 2.29955 10.4865 6.89955 5.7865C10.7996 1.7865 16.6996 -0.313528 22.0996 1.88647C28.1996 4.38647 30.6996 10.5865 33.8996 15.7865C35.7996 18.8865 39.3995 23.2865 43.6995 22.3865C46.5995 21.6865 47.7995 18.6865 48.6995 16.1865C50.2995 12.0865 51.2995 7.48647 54.6995 4.38647C58.4995 0.986472 63.8995 1.3865 67.8995 4.2865C73.2995 8.0865 74.7995 14.5865 79.2995 19.1865C82.4995 22.3865 86.3995 22.0865 89.4995 18.7865C91.9995 15.9865 92.6996 12.2865 94.5996 9.08648C97.6996 3.88648 103.9 2.68647 109.1 5.88647C115.2 9.78647 115.9 17.5864 114.6 23.9864C114.1 26.5864 109.8 25.9865 109.9 23.3865C109.9 20.3865 110.2 17.1865 109.2 14.2865C107.9 10.5865 103.3 7.58645 100.1 10.9864C98.2996 12.8864 97.7996 15.8865 96.5996 18.1865C95.3996 20.5865 93.5995 22.7864 91.4995 24.4864C82.3995 31.3864 74.6995 22.8865 70.2995 15.3865C67.8995 11.2865 61.6995 3.38645 57.3995 9.98645C55.0995 13.3864 54.5995 17.7865 52.6995 21.3865C47.9995 30.4865 37.8995 29.1865 31.7995 22.0865C27.8995 17.5865 25.9995 8.98647 19.7995 6.88647C10.1995 3.78647 6.99954 16.9865 6.19954 23.3865C5.49954 26.7865 -0.000450134 26.8865 0.399551 23.3865Z" fill="#1F1F1F"/>
</svg>
