<svg width="81" height="98" viewBox="0 0 81 98" fill="none" xmlns="http://www.w3.org/2000/svg">
<path d="M66.4759 63.916C69.267 55.0773 61.4363 48.6033 57.172 46.4712C56.2028 49.9601 54.846 57.7522 57.172 61.0085C59.498 64.2649 60.0794 68.5679 60.0794 70.3124V74.9643L66.4759 63.916Z" fill="#1F1F1F" stroke="#1F1F1F"/>
<path d="M41.1879 9.12586C45.5345 6.53148 51.0011 6.17186 47.9901 11.7368C45.1491 16.9877 42.2661 18.7975 40.9813 19.1147C44.2065 18.4899 48.5998 17.6995 47.5705 21.767C46.8026 24.8012 42.7302 26.5204 41.7695 26.6488C44.3442 26.8914 46.2663 29.5679 44.1148 31.0287C39.8119 33.9503 37.0451 33.7329 36.1996 33.2589C36.5201 34.1939 36.8926 38.4453 29.5141 35.9113L21.9687 31.029C26.5228 24.6284 33.4436 13.7448 41.1879 9.12586Z" fill="white" stroke="#1F1F1F"/>
<path d="M55.4309 70.3091L29.8452 68.5646L18.7969 58.0977L21.1228 30.7676L51.942 32.5121L58.3384 42.9789L55.4309 70.3091Z" fill="#F40000"/>
<path d="M31.5897 42.9789L29.8452 68.5646M31.5897 42.9789H58.3384M31.5897 42.9789L21.1228 30.7676M31.5897 42.9789L34.8774 55.1903M29.8452 68.5646L55.4309 70.3091M29.8452 68.5646L18.7969 58.0977L21.1228 30.7676M29.8452 68.5646L34.8774 55.1903M55.4309 70.3091L58.3384 42.9789M55.4309 70.3091L53.1721 55.1903M58.3384 42.9789L51.942 32.5121L21.1228 30.7676M58.3384 42.9789L53.1721 55.1903M53.1721 55.1903L51.942 58.0977H35.6602L34.8774 55.1903" stroke="#1F1F1F"/>
<path d="M26.3522 62.1699L6 69.7293L14.7224 90.6631L18.7928 83.1037C39.1451 92.989 57.7529 84.2667 60.0788 81.9407C61.9396 80.0799 65.1184 68.7602 66.4753 63.3329C59.9625 77.2887 35.0746 74.5751 23.4448 71.4738L26.3522 62.1699Z" fill="#FDA3C4" stroke="#1F1F1F"/>
<path d="M44.5661 46.4004C46.1606 47.458 46.4473 48.8308 44.3784 49.9591C37.9823 53.4471 37.4005 45.3071 39.7265 42.3997C41.5872 40.0737 54.8452 24.3742 67.0566 19.1399C71.7085 17.1441 77.1745 17.5118 73.453 22.6289C69.9415 27.4572 66.8442 28.8691 65.5288 29.0134C68.8082 28.8213 73.2675 28.6198 71.7085 32.5151C70.5456 35.4208 66.2812 36.5855 65.3121 36.5855C67.8319 37.167 69.3826 40.0745 67.0566 41.2375C62.4046 43.5635 59.691 42.9814 58.9157 42.3997C59.1095 43.3688 58.9157 47.6322 51.9378 44.1431C53.5226 46.7845 52.2279 49.4266 44.5661 46.4004Z" fill="white" stroke="#1F1F1F"/>
</svg>
