<svg width="81" height="98" viewBox="0 0 81 98" fill="none" xmlns="http://www.w3.org/2000/svg">
<path d="M26.6124 74.4196L17.7227 83.2061C17.7227 84.9841 21.8712 92.6885 25.4271 92.6885C28.2718 92.6885 27.4026 87.9473 26.6124 85.5767L33.1315 79.0576L26.6124 74.4196Z" fill="#FDA3C4"/>
<path d="M40.8359 77.2797L46.5764 68.1274L55.4321 71.8561L48.5403 79.0576C49.3305 81.2306 50.0812 85.8138 46.7624 86.762C43.4435 87.7102 41.4285 80.8355 40.8359 77.2797Z" fill="#FDA3C4"/>
<path d="M37.28 50.0179C36.8059 49.5438 31.9462 55.7468 29.5756 58.9076C28.983 59.8953 27.7977 62.3447 27.7977 64.2412C27.7977 66.1377 34.5143 67.7972 37.8727 68.3899L44.9844 64.2412C43.7991 63.0559 41.5471 60.2112 42.0212 58.3147C42.4953 56.4182 46.5648 55.9441 48.5403 55.9441C44.9844 54.1663 37.7541 50.492 37.28 50.0179Z" fill="#FDA3C4"/>
<path d="M26.6124 74.4196L17.7227 83.2061C17.7227 84.9841 21.8712 92.6885 25.4271 92.6885C28.2718 92.6885 27.4026 87.9473 26.6124 85.5767L33.1315 79.0576L26.6124 74.4196Z" stroke="#1F1F1F"/>
<path d="M40.8359 77.2797L46.5764 68.1274L55.4321 71.8561L48.5403 79.0576C49.3305 81.2306 50.0812 85.8138 46.7624 86.762C43.4435 87.7102 41.4285 80.8355 40.8359 77.2797Z" stroke="#1F1F1F"/>
<path d="M37.28 50.0179C36.8059 49.5438 31.9462 55.7468 29.5756 58.9076C28.983 59.8953 27.7977 62.3447 27.7977 64.2412C27.7977 66.1377 34.5143 67.7972 37.8727 68.3899L44.9844 64.2412C43.7991 63.0559 41.5471 60.2112 42.0212 58.3147C42.4953 56.4182 46.5648 55.9441 48.5403 55.9441C44.9844 54.1663 37.7541 50.492 37.28 50.0179Z" stroke="#1F1F1F"/>
<path d="M39.0613 31.6435C37.876 28.4827 35.8594 19.885 39.0613 15.6903C41.8443 12.0445 41.7724 7.99985 43.5499 8C45.3274 8.00015 46.3464 11.8505 46.3464 13.8261C51.9022 13.8261 54.9691 15.6903 56.8335 16.6227C58.6979 17.555 59.8631 11.0003 62.1935 11.7287C63.6478 12.1833 63.5997 17.0253 62.9816 22.1616C67.0587 17.2229 74.3119 10.2687 76.9908 14.4572C78.5067 16.8273 66.579 28.2853 60.4842 31.6435C59.3312 34 57.7603 35.7837 55.6555 36.3851L52.6922 39.3483C54.9236 41.5214 59.606 45.986 60.4842 46.4601C61.582 47.0528 65.8821 44.395 68.2527 42.0244C70.6233 39.6538 74.6202 42.9042 71.657 46.4601C68.6937 50.016 65.7305 54.7572 59.2114 52.3866C56.3429 51.3435 53.8211 50.0136 51.9022 48.8307L48.5437 55.541C51.7045 56.5288 58.0261 60.2095 58.0261 63.0542C58.0261 65.8989 55.6555 69.7709 54.4702 71.3513L47.3584 68.3881C47.7932 67.27 48.9192 65.0973 50.1069 64.8544C48.4684 64.8835 42.2159 64.7848 41.4319 63.0542C39.8212 59.4983 41.772 56.8907 43.5499 56.5351L48.5437 55.541L30.1717 51.2013L39.0613 31.6435Z" fill="white"/>
<path d="M24.2071 60.668C29.4224 57.8233 29.579 58.9057 30.1717 59.4983C30.7643 60.091 31.1985 61.1581 28.9863 63.0542C24.8378 66.6101 21.6436 69.9899 11.1566 67.6594C5.9295 66.4978 3.00006 57.5766 3 55.541C2.99982 49.6146 8.05807 48.3166 7.65108 52.3866C7.05843 58.3131 9.90747 62.299 11.6227 63.0542C15.6606 64.8322 17.688 64.2239 24.2071 60.668Z" fill="white"/>
<path d="M30.1717 71.3513V66.6101L37.7238 68.3881C37.9213 69.9685 37.7575 71.5884 37.2834 72.5366C36.8092 73.4848 33.925 76.8827 32.5422 78.4631L27.2084 74.9072L30.1717 71.3513Z" fill="white"/>
<path d="M39.0613 31.6435C37.876 28.4827 35.8594 19.885 39.0613 15.6903C41.8443 12.0445 41.7724 7.99985 43.5499 8C45.3274 8.00015 46.3464 11.8505 46.3464 13.8261C51.9022 13.8261 54.9691 15.6903 56.8335 16.6227C58.6979 17.555 59.8631 11.0003 62.1935 11.7287C63.6478 12.1833 63.5997 17.0253 62.9816 22.1616M39.0613 31.6435C45.2248 29.2726 52.6922 33.8167 55.6555 36.3851M39.0613 31.6435L30.1717 51.2013L48.5437 55.5411M55.6555 36.3851C57.7603 35.7837 59.3312 34 60.4842 31.6435M55.6555 36.3851L52.6922 39.3483C54.9236 41.5214 59.606 45.986 60.4842 46.4601C61.582 47.0528 65.8821 44.395 68.2527 42.0244C70.6233 39.6538 74.6202 42.9042 71.657 46.4601C68.6937 50.016 65.7305 54.7572 59.2114 52.3866C56.3429 51.3435 53.8211 50.0136 51.9022 48.8307M60.4842 31.6435C66.579 28.2853 78.5067 16.8273 76.9908 14.4572C74.3119 10.2687 67.0587 17.2229 62.9816 22.1616M60.4842 31.6435C61.811 28.9317 62.5845 25.4615 62.9816 22.1616M51.9022 48.8307C50.3323 47.8629 49.166 46.9935 48.5437 46.4601L51.9022 48.8307ZM51.9022 48.8307L48.5437 55.5411M48.5437 55.5411L43.5499 56.5351C41.772 56.8907 39.8212 59.4983 41.432 63.0542C42.4101 65.2136 51.9022 64.8322 50.3217 64.8322C49.0572 64.8322 47.8193 67.2028 47.3584 68.3881L54.4702 71.3513C55.6555 69.7709 58.0261 65.8989 58.0261 63.0542C58.0261 60.2095 51.7045 56.5288 48.5437 55.5411ZM30.1717 59.4983C29.579 58.9057 29.4224 57.8233 24.2071 60.6681C17.688 64.2239 15.6606 64.8322 11.6227 63.0542C9.90747 62.299 7.05843 58.3131 7.65108 52.3866C8.05807 48.3166 2.99982 49.6146 3 55.5411C3.00006 57.5766 5.9295 66.4978 11.1566 67.6594C21.6436 69.9899 24.8378 66.6101 28.9863 63.0542C31.1985 61.1581 30.7643 60.091 30.1717 59.4983ZM30.1717 66.6101V71.3513L27.2084 74.9072L32.5422 78.4631C33.925 76.8827 36.8092 73.4848 37.2834 72.5366C37.7575 71.5884 37.9213 69.9685 37.7238 68.3881L30.1717 66.6101Z" stroke="#1F1F1F"/>
<path d="M10.6112 46.4603C5.79359 44.3538 6.25955 39.9259 7.64796 36.978C13.5744 38.1644 20.0935 32.8285 24.2421 29.8653C28.3906 26.902 37.7207 23.8058 37.7207 26.1764L38.4656 31.1031C45.7389 29.8629 51.9047 32.695 55.6524 36.978C58.9712 40.7709 57.0352 42.1142 55.6524 42.3118L53.2818 38.7559C44.9847 37.5706 44.3921 44.0897 38.4656 49.4236C33.7244 53.6906 29.3784 59.1035 27.798 61.2765C22.4641 56.3378 15.1991 48.4664 10.6112 46.4603Z" fill="#F40000"/>
<path d="M38.4656 31.1031C45.7389 29.8629 51.9047 32.695 55.6524 36.978C58.9712 40.7709 57.0352 42.1142 55.6524 42.3118L53.2818 38.7559C44.9847 37.5706 44.3921 44.0897 38.4656 49.4236C33.7244 53.6906 29.3784 59.1035 27.798 61.2765C22.4641 56.3378 15.1991 48.4664 10.6112 46.4603C5.79359 44.3538 6.25955 39.9259 7.64796 36.978C13.5744 38.1644 20.0935 32.8285 24.2421 29.8653C28.3906 26.902 37.7207 23.8058 37.7207 26.1764L38.4656 31.1031ZM38.4656 31.1031C39.119 31.6441 36.8968 31.4151 36.095 31.6441L38.4656 31.1031Z" stroke="#1F1F1F"/>
<path d="M35.4811 42.6744C35.2719 44.0309 34.0709 45.2093 32.075 45.947C30.0974 46.6779 27.4485 46.9259 24.605 46.4873C21.7615 46.0486 19.3105 45.0139 17.6451 43.7209C15.9643 42.416 15.1743 40.9305 15.3836 39.574C15.5928 38.2176 16.7938 37.0392 18.7896 36.3015C20.7673 35.5706 23.4161 35.3225 26.2597 35.7612C29.1032 36.1999 31.5542 37.2346 33.2196 38.5276C34.9003 39.8324 35.6904 41.318 35.4811 42.6744Z" fill="white" stroke="#1F1F1F"/>
<path d="M47.9513 21.5683C43.6843 20.6201 43.0126 22.7536 43.2102 23.9389C43.2102 26.3093 44.9881 26.3093 47.3584 26.3093H47.3589C49.7295 26.3093 51.707 22.4029 47.9513 21.5683Z" fill="white"/>
<path d="M58.6192 22.6807C55.3004 21.7325 54.073 23.5928 54.2705 24.7781C54.2705 26.556 54.4707 26.902 58.6192 27.4946C61.4949 27.9055 62.7677 23.866 58.6192 22.6807Z" fill="white"/>
<path d="M47.9513 21.5683C43.6843 20.6201 43.0126 22.7536 43.2102 23.9389C43.2102 26.3093 44.9881 26.3093 47.3584 26.3093H47.3589C49.7295 26.3093 51.707 22.4029 47.9513 21.5683Z" stroke="#1F1F1F"/>
<path d="M58.6192 22.6807C55.3004 21.7325 54.073 23.5928 54.2705 24.7781C54.2705 26.556 54.4707 26.902 58.6192 27.4946C61.4949 27.9055 62.7677 23.866 58.6192 22.6807Z" stroke="#1F1F1F"/>
<path d="M49.1367 28.0859C49.7294 30.0614 51.5073 33.0642 53.8779 29.2712" stroke="#1F1F1F"/>
<circle cx="45.4526" cy="23.8872" r="2.37059" fill="#1F1F1F"/>
<circle cx="56.6443" cy="24.8194" r="2.37059" fill="#1F1F1F"/>
<path d="M48.2253 26.2657C47.7714 25.2779 48.6434 25.5164 49.1362 25.7592C49.8648 25.3539 50.2767 25.8798 49.9056 26.2852C49.5347 26.6902 48.6792 27.2535 48.2253 26.2657Z" fill="#FDA3C4"/>
<path d="M16.9409 39.4796C16.9632 39.4166 16.9827 39.3632 16.9959 39.3185C17.023 39.2396 17.051 39.1575 17.079 39.0754C17.1071 38.9933 17.1383 38.8881 17.1762 38.7605C17.2132 38.6362 17.2516 38.4952 17.2884 38.347C17.3272 38.1925 17.3527 38.0825 17.3673 38.0212C17.3819 37.9599 17.3942 37.8946 17.4092 37.8197C17.4243 37.7449 17.4337 37.6892 17.4407 37.6533C17.4487 37.6143 17.4553 37.5681 17.4627 37.5188L17.4769 37.4471C17.483 37.4145 17.5016 37.3881 17.5328 37.3679C17.5639 37.3478 17.6014 37.3427 17.6394 37.3479C17.6774 37.3532 17.7117 37.3712 17.7354 37.4004C17.759 37.4296 17.7683 37.4589 17.7612 37.4948L17.7471 37.5664C17.7397 37.6158 17.7341 37.6587 17.727 37.6946C17.72 37.7304 17.7096 37.7893 17.6946 37.8642C17.6795 37.939 17.6654 38.0107 17.6489 38.0784C17.6333 38.1429 17.6087 38.2497 17.5709 38.401C17.5312 38.5588 17.4929 38.6998 17.454 38.8305C17.4189 38.9484 17.3843 39.0529 17.3553 39.1382C17.3812 39.1236 17.3994 39.1108 17.4177 39.0979C17.4642 39.0744 17.5141 39.0518 17.5674 39.0298C17.6207 39.0079 17.685 38.9851 17.7671 38.9629C17.8483 38.9439 17.9141 38.9283 17.9627 38.9223C18.0247 38.9194 18.106 38.9242 18.2065 38.9369C18.3095 38.9535 18.3827 38.9735 18.4362 38.9993C18.4839 39.0204 18.5272 39.0438 18.5697 39.0705C18.6136 39.1043 18.6571 39.1516 18.7069 39.214C18.7523 39.2788 18.7887 39.3381 18.8091 39.3904C18.8286 39.4458 18.8437 39.5037 18.8512 39.5633C18.8601 39.63 18.85 39.7366 18.8223 39.8903C18.797 40.0479 18.7682 40.157 18.7434 40.2161C18.7211 40.2791 18.6939 40.3341 18.66 40.3877C18.6227 40.4405 18.583 40.4893 18.5409 40.5342C18.4979 40.5823 18.4404 40.6304 18.3718 40.6795C18.3033 40.7286 18.2419 40.7657 18.1886 40.7876C18.1353 40.8095 18.0599 40.8332 17.9581 40.8611C17.8572 40.8859 17.7779 40.8985 17.7227 40.9029C17.6717 40.905 17.614 40.9054 17.5438 40.8997C17.4803 40.8955 17.4278 40.8904 17.3865 40.8844C17.3518 40.8799 17.3172 40.8754 17.2859 40.8717C17.2479 40.8665 17.1974 40.855 17.1343 40.8372C17.0645 40.818 17.01 40.7954 16.971 40.7695L16.9353 40.7444C16.9011 40.7264 16.8808 40.6979 16.8724 40.6654C16.8651 40.6297 16.8746 40.5978 16.8975 40.569C16.9205 40.5402 16.9507 40.5232 16.9915 40.5189C17.0324 40.5146 17.0661 40.5222 17.0994 40.5434L17.1418 40.5701C17.1577 40.5771 17.1837 40.5864 17.2198 40.598C17.267 40.6087 17.304 40.6172 17.331 40.6233C17.3589 40.6262 17.3935 40.6307 17.4315 40.6359C17.4662 40.6404 17.5119 40.644 17.5643 40.6491C17.6211 40.6518 17.6677 40.6522 17.7043 40.6503C17.7365 40.6508 17.7936 40.64 17.8748 40.621C17.9603 40.5996 18.0203 40.5792 18.0564 40.567C18.09 40.5508 18.1341 40.5234 18.1878 40.4879C18.2415 40.4525 18.2841 40.418 18.3167 40.3811C18.3482 40.3475 18.374 40.3091 18.4008 40.2675C18.4232 40.2284 18.4476 40.1828 18.4728 40.1341C18.4914 40.0839 18.5112 39.9931 18.5375 39.8561C18.5571 39.7177 18.5658 39.6278 18.5637 39.5864C18.5583 39.5444 18.5528 39.5023 18.5387 39.465C18.5236 39.431 18.4994 39.3914 18.4694 39.3472C18.4341 39.3085 18.4105 39.2793 18.3897 39.2644C18.3665 39.2455 18.3391 39.2291 18.3106 39.2158C18.2846 39.2065 18.2375 39.1958 18.1658 39.1829C18.0931 39.1732 18.0431 39.172 18.0133 39.1754C17.9734 39.1766 17.9205 39.185 17.8571 39.2046C17.7947 39.221 17.7424 39.2398 17.7054 39.2552C17.6641 39.273 17.6185 39.2933 17.5773 39.3111C17.5427 39.3305 17.4819 39.3779 17.3956 39.4502C17.3688 39.468 17.3453 39.4864 17.3261 39.5025C17.273 39.5483 17.2337 39.5836 17.2083 39.6084C17.1936 39.6459 17.1779 39.6866 17.1646 39.7312C17.1118 39.8724 17.0676 39.9849 17.0319 40.0686C16.9996 40.1532 16.9729 40.2186 16.9529 40.2617C16.932 40.308 16.9091 40.3606 16.8825 40.426C16.8549 40.4946 16.8339 40.5409 16.823 40.5657C16.8111 40.5936 16.7896 40.6296 16.7585 40.6735C16.7542 40.676 16.7465 40.6776 16.7412 40.6832C16.7326 40.6881 16.7206 40.6921 16.6957 40.7035C16.6716 40.7116 16.651 40.7206 16.6313 40.7263C16.6116 40.732 16.5886 40.737 16.5631 40.738C16.5376 40.739 16.5164 40.7376 16.5005 40.7306C16.4846 40.7236 16.4697 40.7134 16.461 40.6944C16.4522 40.6754 16.4478 40.654 16.4496 40.6237C16.4514 40.5935 16.4575 40.5609 16.4612 40.5243C16.4649 40.4877 16.4719 40.4518 16.4771 40.4224C16.4841 40.3865 16.4921 40.3475 16.5035 40.3093C16.5149 40.271 16.5401 40.1985 16.579 40.0916C16.6189 39.9816 16.6537 39.901 16.6823 39.853C16.7076 39.8043 16.7363 39.7564 16.7673 39.7124C16.7984 39.6684 16.8295 39.6244 16.8682 39.5788C16.8839 39.5381 16.9102 39.5101 16.9409 39.4796Z" fill="#1F1F1F"/>
<path d="M20.3737 41.6898C20.337 41.7157 20.2973 41.7272 20.2522 41.7204L20.161 41.71C20.081 41.6987 19.9869 41.6739 19.8738 41.6278C19.7641 41.5824 19.6684 41.5264 19.5848 41.4664C19.508 41.408 19.4457 41.3494 19.3994 41.2978C19.3517 41.2391 19.2946 41.1509 19.2379 41.0251C19.1801 40.9025 19.1439 40.8054 19.1324 40.7343C19.1185 40.6593 19.1257 40.5378 19.1541 40.3697C19.179 40.2009 19.2066 40.084 19.2412 40.0166C19.2782 39.9531 19.3355 39.8703 19.4165 39.7689C19.4975 39.6676 19.5805 39.5837 19.6587 39.5159C19.7393 39.4521 19.8093 39.3996 19.8736 39.3662C19.9389 39.3297 20.0323 39.2962 20.1591 39.2599C20.2946 39.2188 20.4471 39.2055 20.6134 39.2192C20.7763 39.2322 20.8902 39.2512 20.9621 39.2778C21.0315 39.3004 21.1223 39.3483 21.2336 39.4249C21.3483 39.5022 21.4309 39.5654 21.4815 39.6145C21.5322 39.6636 21.5804 39.7328 21.6283 39.8155C21.6727 39.8974 21.7046 39.973 21.7189 40.0344C21.7356 40.0998 21.7428 40.1973 21.7371 40.326C21.728 40.4539 21.7072 40.5723 21.6766 40.6749C21.6479 40.771 21.6173 40.8496 21.588 40.9114C21.5611 40.9772 21.5072 41.0607 21.4311 41.1701C21.3517 41.2786 21.2745 41.3672 21.1973 41.4318C21.1191 41.4996 21.0224 41.5564 20.9039 41.6013C20.7844 41.6495 20.6963 41.6774 20.6363 41.6843C20.5811 41.6992 20.4905 41.6992 20.3737 41.6898ZM19.7661 41.2715C19.8223 41.2534 19.8693 41.2538 19.913 41.2774L19.9961 41.327C20.0388 41.3538 20.0869 41.375 20.1437 41.3913C20.1961 41.41 20.2717 41.4238 20.374 41.4333C20.4763 41.4428 20.5446 41.4446 20.5824 41.4395C20.6202 41.4344 20.685 41.4114 20.775 41.3771C20.8659 41.3395 20.9365 41.2974 20.9935 41.2521C21.0548 41.2045 21.1151 41.136 21.1786 41.0444C21.2465 40.9503 21.2942 40.8756 21.3197 40.8266C21.3427 40.7737 21.3671 40.7039 21.3938 40.6142C21.4187 40.5309 21.4371 40.4324 21.4449 40.3213C21.4517 40.2133 21.4489 40.1374 21.4357 40.0968C21.4234 40.053 21.4003 39.9964 21.3657 39.9304C21.331 39.8644 21.2949 39.8151 21.2618 39.7802C21.2287 39.7454 21.1635 39.6964 21.0664 39.6333C20.9682 39.5734 20.8968 39.5333 20.8502 39.5193C20.808 39.5029 20.7222 39.4868 20.5908 39.4776C20.4662 39.4698 20.3539 39.482 20.259 39.5084C20.1554 39.5396 20.0795 39.5635 20.0369 39.5846C19.9891 39.6114 19.9296 39.6527 19.8621 39.7092C19.7954 39.7625 19.7274 39.8326 19.657 39.9227C19.5842 40.0088 19.5376 40.0804 19.5155 40.1301C19.4944 40.1766 19.4701 40.2703 19.4426 40.4112C19.4209 40.5568 19.4145 40.6512 19.4249 40.7014C19.4344 40.7549 19.4653 40.8338 19.5166 40.9412C19.5655 41.0447 19.606 41.1154 19.6372 41.1567C19.6722 41.1852 19.7146 41.2256 19.7661 41.2715Z" fill="#1F1F1F"/>
<path d="M23.2448 42.3734C23.208 42.3993 23.1684 42.4108 23.1233 42.404L23.0321 42.3936C22.9521 42.3823 22.858 42.3575 22.7449 42.3114C22.6352 42.266 22.5395 42.21 22.4559 42.15C22.3791 42.0916 22.3168 42.033 22.2705 41.9814C22.2228 41.9227 22.1657 41.8345 22.109 41.7087C22.0512 41.5861 22.015 41.4889 22.0035 41.4179C21.9896 41.3429 21.9968 41.2214 22.0252 41.0533C22.0501 40.8845 22.0777 40.7676 22.1123 40.7002C22.1493 40.6367 22.2066 40.5539 22.2876 40.4525C22.3686 40.3511 22.4516 40.2673 22.5298 40.1995C22.6104 40.1357 22.6804 40.0832 22.7447 40.0498C22.81 40.0133 22.9034 39.9798 23.0302 39.9435C23.1657 39.9024 23.3182 39.8891 23.4845 39.9028C23.6474 39.9158 23.7613 39.9348 23.8332 39.9614C23.9026 39.9839 23.9934 40.0319 24.1047 40.1085C24.2194 40.1858 24.302 40.249 24.3526 40.2981C24.4032 40.3472 24.4515 40.4164 24.4994 40.4991C24.5438 40.581 24.5756 40.6566 24.59 40.718C24.6067 40.7834 24.6139 40.8808 24.6082 41.0096C24.5991 41.1375 24.5783 41.2559 24.5477 41.3585C24.519 41.4546 24.4884 41.5332 24.4591 41.595C24.4322 41.6608 24.3783 41.7443 24.3022 41.8537C24.2228 41.9622 24.1456 42.0508 24.0684 42.1154C23.9902 42.1832 23.8935 42.24 23.775 42.2849C23.6555 42.3331 23.5674 42.361 23.5074 42.3679C23.4522 42.3828 23.3616 42.3828 23.2448 42.3734ZM22.6372 41.9551C22.6934 41.937 22.7404 41.9374 22.7841 41.961L22.8672 42.0106C22.9099 42.0374 22.958 42.0586 23.0147 42.0749C23.0672 42.0936 23.1428 42.1074 23.2451 42.1169C23.3474 42.1264 23.4157 42.1282 23.4535 42.1231C23.4913 42.118 23.5561 42.095 23.6461 42.0607C23.737 42.0231 23.8076 41.981 23.8646 41.9357C23.9259 41.8881 23.9862 41.8196 24.0497 41.728C24.1176 41.6339 24.1653 41.5592 24.1907 41.5102C24.2138 41.4573 24.2382 41.3875 24.2649 41.2978C24.2898 41.2145 24.3082 41.116 24.316 41.0049C24.3228 40.8969 24.32 40.821 24.3068 40.7804C24.2945 40.7366 24.2714 40.68 24.2367 40.614C24.2021 40.548 24.166 40.4987 24.1329 40.4638C24.0998 40.429 24.0346 40.38 23.9374 40.3169C23.8393 40.257 23.7679 40.2169 23.7213 40.2029C23.6791 40.1865 23.5932 40.1704 23.4619 40.1611C23.3373 40.1534 23.225 40.1656 23.1301 40.192C23.0265 40.2232 22.9506 40.2471 22.908 40.2682C22.8602 40.295 22.8007 40.3362 22.7331 40.3928C22.6665 40.4461 22.5985 40.5162 22.5281 40.6063C22.4553 40.6924 22.4087 40.7639 22.3866 40.8137C22.3655 40.8602 22.3412 40.9539 22.3137 41.0948C22.292 41.2404 22.2856 41.3348 22.296 41.385C22.3055 41.4385 22.3363 41.5173 22.3877 41.6248C22.4366 41.7283 22.4771 41.799 22.5083 41.8403C22.5433 41.8688 22.5857 41.9092 22.6372 41.9551Z" fill="#1F1F1F"/>
<path d="M25.1459 41.9768C25.1392 41.9991 25.1316 42.0246 25.125 42.0469C25.1113 42.1051 25.0986 42.16 25.0849 42.2182C25.0712 42.2763 25.0594 42.3281 25.0461 42.3727C25.0319 42.4205 25.0134 42.4708 24.9939 42.5242L24.9673 42.6135C24.9545 42.6446 24.9291 42.6694 24.8955 42.6856C24.8619 42.7018 24.8245 42.7069 24.7883 42.6953C24.7522 42.6837 24.7223 42.6633 24.6986 42.634C24.6759 42.6017 24.6743 42.5707 24.6872 42.5396L24.7118 42.4567C24.7322 42.4001 24.7498 42.353 24.7631 42.3084C24.7754 42.2669 24.7872 42.2152 24.799 42.1634C24.8118 42.1084 24.8245 42.0535 24.8391 41.9921C24.8581 41.9284 24.887 41.8192 24.9267 41.6615C24.9541 41.5452 24.9782 41.452 24.999 41.3818C25.007 41.3428 25.0169 41.2974 25.0287 41.2457C25.0637 41.1039 25.0907 41.0011 25.1115 40.931C25.1324 40.8608 25.1566 40.7915 25.1832 40.726C25.1842 40.7229 25.1861 40.7165 25.188 40.7101C25.1899 40.7037 25.197 40.6917 25.2085 40.6773C25.22 40.6629 25.2281 40.6478 25.2396 40.6333C25.251 40.6189 25.2649 40.6085 25.2822 40.5988C25.2995 40.5891 25.3158 40.5826 25.3345 40.5801C25.3533 40.5775 25.3711 40.5782 25.3937 40.5867C25.4164 40.5953 25.4371 40.6102 25.4593 40.6322C25.4955 40.6677 25.5115 40.6986 25.515 40.7232C25.5185 40.7478 25.5137 40.7637 25.4965 40.7734L25.4749 40.7855C25.4588 40.8397 25.4398 40.9035 25.4171 40.98C25.3943 41.0565 25.3744 41.1234 25.3555 41.1872C25.3374 41.2478 25.3185 41.3115 25.2986 41.3785C25.2972 41.3952 25.2949 41.4151 25.2873 41.4406C25.2765 41.4892 25.2694 41.525 25.2633 41.5576C25.347 41.4575 25.4087 41.3831 25.4518 41.335C25.4992 41.2845 25.549 41.238 25.5997 41.1883C25.6514 41.1354 25.742 41.0607 25.8647 40.9626C25.9993 40.8605 26.0904 40.7961 26.1379 40.7695C26.1955 40.7452 26.2589 40.7255 26.3281 40.7106L26.4064 40.7012C26.4448 40.6929 26.4829 40.6982 26.5195 40.7201C26.5528 40.7413 26.574 40.7665 26.5824 40.7991C26.5907 40.8316 26.5812 40.8635 26.5573 40.8955C26.5343 40.9243 26.5032 40.9444 26.4657 40.9495L26.3864 40.9621C26.3489 40.9672 26.3138 40.9762 26.2855 40.9868C26.2553 41.0038 26.1815 41.0585 26.066 41.1445C25.9476 41.2401 25.8657 41.31 25.8202 41.3541C25.7738 41.4014 25.7283 41.4455 25.6852 41.4936C25.6421 41.5417 25.5761 41.6185 25.4871 41.7242C25.3843 41.8404 25.3048 41.9142 25.2467 41.9521C25.2117 41.9611 25.18 41.9709 25.1459 41.9768Z" fill="#1F1F1F"/>
<path d="M26.7116 43.1507C26.6755 43.1661 26.6397 43.168 26.6035 43.1596C26.5673 43.1512 26.5389 43.1278 26.5191 43.0995C26.5001 43.0681 26.4944 43.0397 26.5036 43.008L26.5241 42.9621C26.5334 42.9304 26.5492 42.8766 26.5714 42.8006C26.5937 42.7246 26.6122 42.6612 26.6261 42.6137C26.6391 42.5694 26.6544 42.5053 26.6742 42.4254C26.6951 42.3423 26.7172 42.2426 26.7431 42.1302C26.7666 42.0139 26.7882 41.904 26.8113 41.8011C26.8344 41.6982 26.8542 41.6183 26.8662 41.5535C26.8781 41.4886 26.8892 41.4269 26.9021 41.3589C26.9149 41.2909 26.9223 41.2418 26.9264 41.2157C26.9319 41.1967 26.9351 41.1738 26.936 41.147L26.9424 41.1011C26.9441 41.0711 26.959 41.0441 26.9895 41.0241C27.0209 41.0009 27.0552 40.9919 27.0924 40.9971C27.1305 40.9992 27.164 41.017 27.1913 41.0437C27.2187 41.0703 27.2278 41.0994 27.2218 41.1318L27.2206 41.1721C27.2146 41.2046 27.2095 41.2338 27.2054 41.2599C27.1989 41.2821 27.1925 41.3279 27.183 41.3967C27.1701 41.4647 27.1572 41.5328 27.1452 41.5976C27.1333 41.6625 27.1158 41.7463 27.0927 41.8492C27.0663 41.9513 27.0414 42.0605 27.0155 42.1729C26.992 42.2891 26.9732 42.3896 26.9524 42.4727C26.9315 42.5558 26.9163 42.6199 26.9024 42.6674C26.8885 42.7149 26.8699 42.7782 26.8468 42.8574C26.8236 42.9366 26.8069 42.9936 26.7976 43.0252L26.7753 43.0775C26.7693 43.11 26.7478 43.1354 26.7116 43.1507Z" fill="#1F1F1F"/>
<path d="M27.7856 41.1187C27.8087 41.0897 27.8392 41.0726 27.877 41.0675C27.9148 41.0624 27.9521 41.0709 27.99 41.0897C28.0236 41.111 28.045 41.1364 28.0534 41.1691L28.0768 41.2977C28.0961 41.391 28.1096 41.5037 28.1185 41.6323C28.1301 41.7513 28.1383 41.8456 28.1483 41.9095C28.1641 41.9781 28.1868 42.0723 28.213 42.1912C28.2426 42.3108 28.2767 42.4521 28.3137 42.6077C28.3498 42.7664 28.3774 42.8685 28.3946 42.9204C28.4108 42.9754 28.428 43.0272 28.4428 43.0751C28.4561 43.1157 28.48 43.1691 28.5191 43.2327C28.5264 43.2446 28.5372 43.2573 28.5445 43.2693C28.5672 43.2539 28.5875 43.2345 28.6111 43.2159C28.7044 43.1344 28.7696 43.0739 28.8043 43.0304C28.8452 42.9781 28.8862 42.9257 28.9291 42.867C28.9764 42.8058 29.0559 42.6972 29.1686 42.5379C29.2838 42.3826 29.3658 42.278 29.4121 42.22C29.4584 42.1621 29.5119 42.0921 29.5726 42.01C29.6358 41.9319 29.6811 41.8771 29.7096 41.8425L29.7487 41.7966C29.7674 41.77 29.8013 41.7538 29.8391 41.7486C29.8803 41.7443 29.9177 41.7528 29.9522 41.7709C29.9857 41.7922 30.0072 41.8176 30.0112 41.8527C30.0186 41.8886 30.01 41.9175 29.9835 41.9457L29.9512 41.9931C29.9247 42.0213 29.8793 42.0761 29.8161 42.1542C29.7554 42.2363 29.7029 42.3031 29.6575 42.3578C29.6156 42.4134 29.5336 42.518 29.4175 42.6765C29.3013 42.835 29.2184 42.9429 29.1789 43.0024C29.1317 43.0635 29.0897 43.1191 29.0487 43.1714C29.0059 43.2301 28.9325 43.3059 28.8253 43.398C28.82 43.4036 28.8093 43.4149 28.791 43.4279C28.776 43.4416 28.762 43.4521 28.7533 43.457C28.7446 43.4618 28.7306 43.4724 28.7112 43.4885C28.6919 43.5047 28.6779 43.5152 28.6692 43.5201C28.6605 43.5249 28.644 43.5315 28.6232 43.5404C28.6024 43.5494 28.5835 43.552 28.569 43.5521C28.5544 43.5522 28.5365 43.5516 28.5142 43.5534C28.4919 43.5552 28.4715 43.5505 28.455 43.5331C28.3855 43.5105 28.3242 43.4487 28.2665 43.35C28.2109 43.2689 28.1762 43.2029 28.1609 43.1446C28.1428 43.096 28.1256 43.0442 28.1093 42.9892C28.0907 42.9302 28.0616 42.8209 28.0274 42.6557C27.9913 42.4969 27.9597 42.3596 27.9267 42.2392C27.8971 42.1195 27.8753 42.0222 27.8629 41.9543C27.849 41.8793 27.8359 41.7771 27.8237 41.6476C27.8198 41.5269 27.8068 41.4247 27.7914 41.3425L27.7612 41.2124C27.7529 41.1797 27.7624 41.1477 27.7856 41.1187Z" fill="#1F1F1F"/>
<path d="M32.2286 43.8969L32.2218 43.8953C32.1876 43.9252 32.1577 43.9526 32.1356 43.9783C32.1076 43.9993 32.0787 44.0235 32.0464 44.0469C32.0044 44.0784 31.9166 44.1302 31.7838 44.1992C31.6501 44.2714 31.5497 44.3169 31.4834 44.3327C31.4206 44.3492 31.3587 44.3625 31.2988 44.3694C31.2388 44.3763 31.1798 44.38 31.1208 44.3837C31.0593 44.3834 30.9887 44.3776 30.9097 44.3631C30.8317 44.3455 30.7474 44.3127 30.6601 44.2655C30.583 44.2207 30.5262 44.1805 30.4878 44.1513C30.4495 44.1221 30.4121 44.0897 30.3766 44.0509C30.3402 44.0153 30.3075 43.9669 30.2768 43.9121C30.2422 43.8461 30.2215 43.7697 30.2167 43.6763C30.2101 43.5894 30.2122 43.5215 30.2241 43.4696C30.235 43.4208 30.2546 43.3671 30.2848 43.3022C30.314 43.2405 30.3496 43.1939 30.3833 43.1537C30.418 43.1103 30.4768 43.0587 30.5607 42.9958C30.6456 42.9296 30.717 42.8843 30.774 42.863C30.8267 42.8442 30.8793 42.8254 30.9378 42.8114C30.9963 42.7973 31.0702 42.7799 31.1611 42.7663C31.2588 42.7543 31.3706 42.7558 31.4878 42.7755C31.6059 42.792 31.6999 42.8168 31.761 42.8546C31.8255 42.8931 31.9057 42.9762 32.0026 43.1007C32.0157 43.1173 32.0255 43.1332 32.0386 43.1499C32.0363 43.0605 32.036 42.9887 32.0333 42.9368C32.0267 42.8738 32.0138 42.7957 31.9921 42.6985C31.9728 42.6053 31.9512 42.5321 31.9282 42.4756C31.9086 42.4199 31.8804 42.3691 31.8502 42.3246C31.8248 42.2881 31.7685 42.2344 31.6869 42.168C31.6019 42.1009 31.5258 42.0529 31.4574 42.0271C31.3833 41.9966 31.3241 41.9764 31.2767 41.9656C31.2268 41.9509 31.1793 41.9401 31.129 41.939C31.0917 41.9305 31.0114 41.9328 30.8992 41.9449C30.816 41.9568 30.7575 41.9709 30.7256 41.9807L30.6837 42.0122C30.6523 42.0324 30.6161 42.0447 30.5769 42.0427C30.5377 42.0406 30.5023 42.0258 30.4741 41.9989C30.4459 41.972 30.4376 41.9393 30.4403 41.9058C30.4431 41.8722 30.4594 41.8418 30.4874 41.8208L30.5414 41.7852C30.594 41.7424 30.6998 41.7152 30.8608 41.697C31.0074 41.679 31.1124 41.6789 31.1777 41.6903C31.2373 41.697 31.2959 41.7069 31.3526 41.7231C31.417 41.7378 31.4955 41.7658 31.5823 41.8026C31.6758 41.8409 31.7738 41.9007 31.8787 41.986C31.9845 42.0681 32.0608 42.1401 32.1041 42.2011C32.1441 42.2615 32.1797 42.3242 32.209 42.3958C32.2384 42.4674 32.2629 42.5549 32.2852 42.6625C32.3074 42.7701 32.3209 42.8585 32.3255 42.9279C32.3302 42.9973 32.334 43.0939 32.335 43.2239C32.339 43.3444 32.3456 43.4314 32.3517 43.484C32.3533 43.539 32.3516 43.5933 32.3533 43.6484C32.355 43.7034 32.3547 43.741 32.3548 43.7649C32.3675 43.7951 32.3503 43.8288 32.3064 43.8667L32.2286 43.8969ZM32.0217 43.7167C32.0075 43.6793 31.9967 43.6427 31.984 43.6125C31.9674 43.5711 31.9483 43.5258 31.9268 43.4765C31.9043 43.4304 31.8522 43.3502 31.7685 43.2424C31.6873 43.1385 31.6328 43.0783 31.5984 43.0603C31.5732 43.0477 31.5233 43.033 31.4443 43.0185C31.3577 43.0057 31.2817 43.0055 31.2174 43.0149C31.1386 43.0243 31.0767 43.0376 31.0327 43.0516C30.9887 43.0655 30.9448 43.0795 30.9008 43.0934C30.868 43.1065 30.8183 43.1396 30.7536 43.1865C30.688 43.2365 30.6451 43.2712 30.623 43.2969C30.6042 43.3234 30.5783 43.362 30.5538 43.4077C30.5337 43.4509 30.5198 43.4854 30.5146 43.5149C30.506 43.5437 30.5028 43.5909 30.5084 43.6571C30.515 43.7201 30.5263 43.767 30.5458 43.7988C30.5668 43.8377 30.5897 43.8703 30.612 43.8924C30.6344 43.9146 30.6601 43.9375 30.6859 43.9604C30.7116 43.9833 30.7611 44.0117 30.8266 44.047C30.8819 44.08 30.9333 44.102 30.9807 44.1127C31.0359 44.1218 31.0819 44.1254 31.1177 44.1267C31.1579 44.1256 31.2024 44.122 31.2512 44.116C31.3001 44.11 31.3465 44.1 31.3963 44.0908C31.4402 44.0768 31.5199 44.0402 31.6353 43.981C31.7516 43.9185 31.8255 43.8772 31.8525 43.8594C31.8814 43.8352 31.907 43.8103 31.9272 43.7909C31.9455 43.778 31.9754 43.7506 32.0217 43.7167Z" fill="#1F1F1F"/>
</svg>
