<svg width="22" height="18" viewBox="0 0 22 18" fill="none" xmlns="http://www.w3.org/2000/svg">
<path d="M15.1082 1.86192C14.8812 2.33978 14.7458 2.85593 14.7089 3.38366H3.28487C2.84092 3.38366 2.41516 3.56002 2.10124 3.87394C1.78732 4.18786 1.61096 4.61362 1.61096 5.05757V5.41792L10.437 10.7136L16.4303 7.118C16.9359 7.49169 17.5182 7.74825 18.1352 7.86913L10.8284 12.2536C10.7237 12.3163 10.6055 12.3529 10.4836 12.3603C10.3618 12.3677 10.24 12.3457 10.1284 12.2962L10.0457 12.2536L1.61096 7.19227V15.101C1.61096 15.6897 2.08818 16.1663 2.67618 16.1663H18.1979C18.4804 16.1663 18.7514 16.054 18.9511 15.8543C19.1509 15.6545 19.2631 15.3836 19.2631 15.101V7.93853C19.7909 7.90141 20.307 7.76577 20.7849 7.53861V15.101C20.7849 15.7871 20.5123 16.4451 20.0272 16.9303C19.542 17.4154 18.884 17.688 18.1979 17.688H2.67618C1.99007 17.688 1.33207 17.4154 0.846924 16.9303C0.361776 16.4451 0.0892222 15.7871 0.0892222 15.101L0.0886136 5.90122C0.0863476 5.86738 0.0863476 5.83342 0.0886136 5.79957L0.0892222 5.05757C0.0892222 3.29236 1.51966 1.86192 3.28487 1.86192H15.1082ZM18.9588 0.644531C19.766 0.644531 20.5401 0.965182 21.1108 1.53594C21.6816 2.10671 22.0023 2.88083 22.0023 3.68801C22.0023 4.49519 21.6816 5.26931 21.1108 5.84007C20.5401 6.41083 19.766 6.73148 18.9588 6.73148C18.1516 6.73148 17.3775 6.41083 16.8067 5.84007C16.236 5.26931 15.9153 4.49519 15.9153 3.68801C15.9153 2.88083 16.236 2.10671 16.8067 1.53594C17.3775 0.965182 18.1516 0.644531 18.9588 0.644531Z" fill="#1F1F1F"/>
</svg>
