<svg width="71" height="86" viewBox="0 0 71 86" fill="none" xmlns="http://www.w3.org/2000/svg">
<path d="M61.4749 57.9174C64.2661 49.0788 56.4353 42.6048 52.171 40.4727C51.2019 43.9616 49.845 51.7536 52.171 55.01C54.497 58.2663 55.0785 62.5694 55.0785 64.3139V68.9658L61.4749 57.9174Z" fill="#1F1F1F" stroke="#1F1F1F"/>
<path d="M36.1879 3.12573C40.5345 0.531353 46.0011 0.171737 42.9901 5.73672C40.1491 10.9876 37.2661 12.7973 35.9813 13.1146C39.2065 12.4898 43.5998 11.6994 42.5705 15.7669C41.8026 18.801 37.7302 20.5203 36.7695 20.6487C39.3442 20.8913 41.2663 23.5677 39.1148 25.0286C34.8119 27.9502 32.0451 27.7327 31.1996 27.2588C31.5201 28.1937 31.8926 32.4452 24.5141 29.9112L16.9687 25.0289C21.5228 18.6283 28.4436 7.7447 36.1879 3.12573Z" fill="white" stroke="#1F1F1F"/>
<path d="M50.4309 64.3071L24.8452 62.5627L13.7969 52.0958L16.1228 24.7656L46.942 26.5101L53.3384 36.977L50.4309 64.3071Z" fill="#F40000"/>
<path d="M26.5897 36.977L24.8452 62.5627M26.5897 36.977H53.3384M26.5897 36.977L16.1228 24.7656M26.5897 36.977L29.8774 49.1883M24.8452 62.5627L50.4309 64.3071M24.8452 62.5627L13.7969 52.0958L16.1228 24.7656M24.8452 62.5627L29.8774 49.1883M50.4309 64.3071L53.3384 36.977M50.4309 64.3071L48.1721 49.1883M53.3384 36.977L46.942 26.5101L16.1228 24.7656M53.3384 36.977L48.1721 49.1883M48.1721 49.1883L46.942 52.0958H30.6602L29.8774 49.1883" stroke="#1F1F1F"/>
<path d="M21.3522 56.1719L1 63.7313L9.72239 84.665L13.7928 77.1056C34.1451 86.991 52.7529 78.2686 55.0788 75.9426C56.9396 74.0819 60.1184 62.7621 61.4753 57.3349C54.9625 71.2907 30.0746 68.5771 18.4448 65.4758L21.3522 56.1719Z" fill="#FDA3C4" stroke="#1F1F1F"/>
<path d="M39.5661 40.4014C41.1606 41.4589 41.4473 42.8318 39.3784 43.96C32.9823 47.4481 32.4005 39.3081 34.7265 36.4006C36.5872 34.0747 49.8452 18.3752 62.0566 13.1409C66.7085 11.1451 72.1745 11.5127 68.453 16.6299C64.9415 21.4582 61.8442 22.8701 60.5288 23.0144C63.8082 22.8223 68.2675 22.6208 66.7085 26.5161C65.5456 29.4218 61.2812 30.5865 60.3121 30.5865C62.8319 31.168 64.3826 34.0755 62.0566 35.2385C57.4046 37.5644 54.691 36.9824 53.9157 36.4006C54.1095 37.3698 53.9157 41.6332 46.9378 38.1441C48.5226 40.7855 47.2279 43.4276 39.5661 40.4014Z" fill="white" stroke="#1F1F1F"/>
</svg>
