<svg width="180" height="50" viewBox="0 0 180 50" fill="none" xmlns="http://www.w3.org/2000/svg">
<path d="M5.34793 35.1044L1.92048 30.2118L0.028912 10.6414C1.68465 7.85536 7.46439 2.12014 17.3374 1.4678C29.6787 0.652364 35.3875 -0.172465 49.5699 0.0313937C63.7524 0.235252 124.682 0.44087 129.672 0.44087C134.662 0.44087 159.379 -0.170538 165.953 2.88717C171.212 5.33334 176.04 10.0222 177.796 12.0608C177.272 12.4685 176.54 13.7323 177.805 15.5263C179.071 17.3202 179.744 20.0791 179.922 21.2343C179.223 21.9138 177.827 23.436 177.829 24.0883C177.831 24.9037 173.104 25.1076 175.471 26.1269C177.364 26.9423 177.843 29.3207 177.846 30.4079C176.01 31.4272 171.499 33.5066 168.138 33.6696C164.776 33.8327 161.837 34.553 160.787 34.8928L160.792 36.5238C162.368 36.7956 165.206 37.4206 163.947 37.7468C162.372 38.1545 160.793 37.1352 159.482 37.7468C158.17 38.3584 156.335 39.5815 157.912 39.9893C158.397 40.365 158.871 40.5523 159.296 40.6252C159.817 40.5276 160.381 40.4473 160.802 40.397C160.533 40.5644 159.978 40.7422 159.296 40.6252C158.412 40.7911 157.651 41.0071 157.916 41.2124C158.337 41.5386 160.019 42.0278 160.807 42.2317L162.124 43.4548H157.922C155.611 43.4548 156.087 44.678 156.613 45.2896C156.001 45.4255 154.408 45.6157 152.937 45.2896C151.097 44.8818 151.887 45.4934 148.736 45.6973C146.215 45.8604 132.509 45.7652 128.219 45.6973C128.568 45.4255 128.794 44.8818 126.903 44.8818C124.54 44.8818 124.277 44.8818 121.389 45.2896C118.502 45.6973 52.318 44.8801 43.3887 44.8801C36.2452 44.8801 45.3232 43.8702 44.01 43.8702C39.8974 44.5497 25.652 45.868 19.5586 45.7049C11.9419 45.501 5.37064 43.4625 5.37008 43.2586C5.36964 43.0955 3.9659 41.9675 3.26408 41.4239C3.96534 41.7636 5.36731 42.2393 5.3651 41.4239C5.36288 40.6084 3.95574 38.2301 3.25245 37.1429L5.34793 35.1044Z" fill="#F40000"/>
<path d="M10.3694 46.7242C9.52902 46.7242 9.49622 47.5396 9.58487 47.9473L7.87834 48.1512C7.04853 48.8307 5.54638 50.149 6.17625 49.9859C6.80611 49.8228 8.01298 49.3744 8.53768 49.1705C8.88711 48.8987 11.2668 48.3551 17.9901 48.3551C26.3941 48.3551 25.6051 47.9473 26.393 47.9473C27.1809 47.9473 11.4199 46.7242 10.3694 46.7242Z" fill="#F40000"/>
</svg>
