<svg width="20" height="20" viewBox="0 0 20 20" fill="none" xmlns="http://www.w3.org/2000/svg">
<path fill-rule="evenodd" clip-rule="evenodd" d="M17.999 8.99902C17.999 4.03102 13.967 -0.000976562 8.99902 -0.000976562C4.03102 -0.000976562 -0.000976562 4.03102 -0.000976562 8.99902C-0.000976562 13.967 4.03102 17.999 8.99902 17.999C13.967 17.999 17.999 13.967 17.999 8.99902ZM15.999 8.99902C15.999 12.866 12.866 15.999 8.99902 15.999C5.13102 15.999 1.99902 12.866 1.99902 8.99902C1.99902 5.13102 5.13102 1.99902 8.99902 1.99902C12.866 1.99902 15.999 5.13102 15.999 8.99902ZM16.6608 16.8921C16.3385 17.2125 16.3369 17.7335 16.6573 18.0558L18.314 19.7224C18.6344 20.0447 19.1554 20.0463 19.4777 19.7259L19.7279 19.4771C20.0502 19.1568 20.0517 18.6358 19.7313 18.3135L18.0747 16.6469C17.7543 16.3246 17.2333 16.323 16.911 16.6434L16.6608 16.8921Z" fill="black"/>
</svg>
