<svg width="16" height="16" viewBox="0 0 16 16" fill="none" xmlns="http://www.w3.org/2000/svg">
<g clip-path="url(#clip0_101_6952)">
<path d="M9.20674 5.79688C8.99977 5.79688 8.83203 5.96462 8.83203 6.17158V13.2535C8.83203 13.4604 8.99977 13.6283 9.20674 13.6283C9.41371 13.6283 9.58145 13.4604 9.58145 13.2535V6.17158C9.58145 5.96462 9.41371 5.79688 9.20674 5.79688Z" fill="#848484"/>
<path d="M6.78584 5.79688C6.57887 5.79688 6.41113 5.96462 6.41113 6.17158V13.2535C6.41113 13.4604 6.57887 13.6283 6.78584 13.6283C6.99281 13.6283 7.16055 13.4604 7.16055 13.2535V6.17158C7.16055 5.96462 6.99281 5.79688 6.78584 5.79688Z" fill="#848484"/>
<path d="M2.56323 4.76335V13.9953C2.56323 14.541 2.76332 15.0534 3.11285 15.4211C3.46077 15.7898 3.94496 15.9991 4.45169 16H11.5413C12.0481 15.9991 12.5323 15.7898 12.8801 15.4211C13.2296 15.0534 13.4297 14.541 13.4297 13.9953V4.76335C14.1245 4.57893 14.5748 3.90768 14.4818 3.19471C14.3887 2.48189 13.7814 1.94867 13.0625 1.94852H11.144V1.48014C11.1462 1.08626 10.9905 0.708039 10.7116 0.42979C10.4328 0.151688 10.054 -0.0031709 9.66011 4.92333e-05H6.33284C5.93896 -0.0031709 5.56015 0.151688 5.28132 0.42979C5.00248 0.708039 4.84675 1.08626 4.84894 1.48014V1.94852H2.93048C2.21151 1.94867 1.60422 2.48189 1.51113 3.19471C1.41819 3.90768 1.86842 4.57893 2.56323 4.76335ZM11.5413 15.2506H4.45169C3.81103 15.2506 3.31265 14.7002 3.31265 13.9953V4.79629H12.6803V13.9953C12.6803 14.7002 12.1819 15.2506 11.5413 15.2506ZM5.59835 1.48014C5.59587 1.28503 5.67256 1.09724 5.81103 0.959502C5.94935 0.821768 6.13758 0.746095 6.33284 0.749461H9.66011C9.85537 0.746095 10.0436 0.821768 10.1819 0.959502C10.3204 1.09709 10.3971 1.28503 10.3946 1.48014V1.94852H5.59835V1.48014ZM2.93048 2.69793H13.0625C13.435 2.69793 13.7369 2.99989 13.7369 3.3724C13.7369 3.74491 13.435 4.04687 13.0625 4.04687H2.93048C2.55797 4.04687 2.256 3.74491 2.256 3.3724C2.256 2.99989 2.55797 2.69793 2.93048 2.69793Z" fill="#848484"/>
</g>
<defs>
<clipPath id="clip0_101_6952">
<rect width="16" height="16" fill="white"/>
</clipPath>
</defs>
</svg>
