<svg width="30" height="30" viewBox="0 0 30 30" fill="none" xmlns="http://www.w3.org/2000/svg">
<g clip-path="url(#clip0_101_6472)">
<rect width="30" height="30" rx="15" fill="#F8F8F8"/>
<path d="M12.1539 14.6999C11.9404 14.6999 11.7332 14.5866 11.62 14.3841C11.4526 14.084 11.5557 13.7025 11.8492 13.532L17.5426 10.2253C17.8363 10.0527 18.2118 10.1587 18.3803 10.4588C18.5477 10.7588 18.4446 11.1404 18.1511 11.3109L12.4577 14.6175C12.361 14.6739 12.257 14.6999 12.1539 14.6999Z" fill="#2C2C2C"/>
<path d="M17.8458 19.8562C17.7427 19.8562 17.6387 19.8301 17.5429 19.7738L11.8495 16.4672C11.5551 16.2966 11.452 15.9142 11.6203 15.615C11.7879 15.315 12.1625 15.209 12.458 15.3816L18.1514 18.6882C18.4458 18.8587 18.5489 19.2412 18.3806 19.5403C18.2665 19.7429 18.0593 19.8562 17.8458 19.8562Z" fill="#2C2C2C"/>
<path d="M21.75 19.9997C21.75 21.3805 20.651 22.5 19.2954 22.5C17.9398 22.5 16.8407 21.3805 16.8407 19.9997C16.8407 18.6189 17.9398 17.4994 19.2954 17.4994C20.651 17.4994 21.75 18.6189 21.75 19.9997Z" fill="#2C2C2C"/>
<path d="M21.75 10.0003C21.75 11.3811 20.651 12.5006 19.2954 12.5006C17.9398 12.5006 16.8407 11.3811 16.8407 10.0003C16.8407 8.61946 17.9398 7.5 19.2954 7.5C20.651 7.5 21.75 8.61946 21.75 10.0003Z" fill="#2C2C2C"/>
<path d="M13.1593 15C13.1593 16.3808 12.0602 17.5003 10.7046 17.5003C9.34901 17.5003 8.25 16.3808 8.25 15C8.25 13.6192 9.34901 12.4997 10.7046 12.4997C12.0602 12.4997 13.1593 13.6192 13.1593 15Z" fill="#2C2C2C"/>
</g>
<defs>
<clipPath id="clip0_101_6472">
<rect width="30" height="30" fill="white"/>
</clipPath>
</defs>
</svg>
