<svg width="69" height="16" viewBox="0 0 69 16" fill="none" xmlns="http://www.w3.org/2000/svg">
<path d="M6.31534 2.94399C6.38366 2.77973 6.61634 2.77973 6.68466 2.94399L8.17236 6.52083C8.20116 6.59008 8.26628 6.63739 8.34104 6.64339L12.2025 6.95296C12.3799 6.96718 12.4518 7.18848 12.3167 7.30421L9.37462 9.8244C9.31766 9.87319 9.29278 9.94975 9.31018 10.0227L10.209 13.7909C10.2503 13.9639 10.0621 14.1007 9.91024 14.008L6.60425 11.9887C6.54025 11.9496 6.45975 11.9496 6.39575 11.9887L3.08976 14.008C2.93794 14.1007 2.74969 13.9639 2.79097 13.7909L3.68982 10.0227C3.70722 9.94975 3.68234 9.87319 3.62538 9.8244L0.683324 7.30421C0.548217 7.18848 0.620122 6.96718 0.797453 6.95296L4.65896 6.64339C4.73372 6.63739 4.79884 6.59008 4.82764 6.52083L6.31534 2.94399Z" fill="url(#paint0_linear_101_4976)"/>
<path d="M20.3153 2.94399C20.3837 2.77973 20.6163 2.77973 20.6847 2.94399L22.1724 6.52083C22.2012 6.59008 22.2663 6.63739 22.341 6.64339L26.2025 6.95296C26.3799 6.96718 26.4518 7.18848 26.3167 7.30421L23.3746 9.8244C23.3177 9.87319 23.2928 9.94975 23.3102 10.0227L24.209 13.7909C24.2503 13.9639 24.0621 14.1007 23.9102 14.008L20.6043 11.9887C20.5402 11.9496 20.4598 11.9496 20.3957 11.9887L17.0898 14.008C16.9379 14.1007 16.7497 13.9639 16.791 13.7909L17.6898 10.0227C17.7072 9.94975 17.6823 9.87319 17.6254 9.8244L14.6833 7.30421C14.5482 7.18848 14.6201 6.96718 14.7975 6.95296L18.659 6.64339C18.7337 6.63739 18.7988 6.59008 18.8276 6.52083L20.3153 2.94399Z" fill="url(#paint1_linear_101_4976)"/>
<path d="M34.3153 2.94399C34.3837 2.77973 34.6163 2.77973 34.6847 2.94399L36.1724 6.52083C36.2012 6.59008 36.2663 6.63739 36.341 6.64339L40.2025 6.95296C40.3799 6.96718 40.4518 7.18848 40.3167 7.30421L37.3746 9.8244C37.3177 9.87319 37.2928 9.94975 37.3102 10.0227L38.209 13.7909C38.2503 13.9639 38.0621 14.1007 37.9102 14.008L34.6043 11.9887C34.5402 11.9496 34.4598 11.9496 34.3957 11.9887L31.0898 14.008C30.9379 14.1007 30.7497 13.9639 30.791 13.7909L31.6898 10.0227C31.7072 9.94975 31.6823 9.87319 31.6254 9.8244L28.6833 7.30421C28.5482 7.18848 28.6201 6.96718 28.7975 6.95296L32.659 6.64339C32.7337 6.63739 32.7988 6.59008 32.8276 6.52083L34.3153 2.94399Z" fill="url(#paint2_linear_101_4976)"/>
<path d="M48.3153 2.94399C48.3837 2.77973 48.6163 2.77973 48.6847 2.94399L50.1724 6.52083C50.2012 6.59008 50.2663 6.63739 50.341 6.64339L54.2025 6.95296C54.3799 6.96718 54.4518 7.18848 54.3167 7.30421L51.3746 9.8244C51.3177 9.87319 51.2928 9.94975 51.3102 10.0227L52.209 13.7909C52.2503 13.9639 52.0621 14.1007 51.9102 14.008L48.6043 11.9887C48.5402 11.9496 48.4598 11.9496 48.3957 11.9887L45.0898 14.008C44.9379 14.1007 44.7497 13.9639 44.791 13.7909L45.6898 10.0227C45.7072 9.94975 45.6823 9.87319 45.6254 9.8244L42.6833 7.30421C42.5482 7.18848 42.6201 6.96718 42.7975 6.95296L46.659 6.64339C46.7337 6.63739 46.7988 6.59008 46.8276 6.52083L48.3153 2.94399Z" fill="url(#paint3_linear_101_4976)"/>
<path d="M62.3155 2.94351C62.3838 2.77925 62.6165 2.77925 62.6848 2.94351L64.1725 6.52035C64.2013 6.5896 64.2664 6.63691 64.3412 6.64291L68.2027 6.95248C68.38 6.9667 68.4519 7.188 68.3168 7.30374L65.3747 9.82392C65.3178 9.87271 65.2929 9.94927 65.3103 10.0222L66.2092 13.7904C66.2504 13.9634 66.0622 14.1002 65.9104 14.0075L62.6044 11.9882C62.5404 11.9491 62.4599 11.9491 62.3959 11.9882L59.0899 14.0075C58.9381 14.1002 58.7498 13.9634 58.7911 13.7904L59.6899 10.0222C59.7073 9.94927 59.6825 9.87271 59.6255 9.82392L56.6835 7.30374C56.5483 7.188 56.6203 6.9667 56.7976 6.95248L60.6591 6.64291C60.7338 6.63691 60.799 6.5896 60.8278 6.52035L62.3155 2.94351Z" fill="#E3E3E3"/>
<path d="M59.0899 14.0075L62.3959 11.9882C62.4279 11.9686 62.4641 11.9589 62.5002 11.9589V2.82031C62.425 2.82027 62.3496 2.86134 62.3155 2.94351L60.8278 6.52035C60.799 6.5896 60.7338 6.63691 60.6591 6.64291L56.7976 6.95248C56.6203 6.9667 56.5483 7.188 56.6835 7.30374L59.6255 9.82392C59.6825 9.87271 59.7073 9.94927 59.6899 10.0222L58.7911 13.7904C58.7498 13.9634 58.9381 14.1002 59.0899 14.0075Z" fill="url(#paint4_linear_101_4976)"/>
<defs>
<linearGradient id="paint0_linear_101_4976" x1="-3.37193e-08" y1="9.09155" x2="13" y2="9.09155" gradientUnits="userSpaceOnUse">
<stop stop-color="#21A5B5"/>
<stop offset="1" stop-color="#71B2B4"/>
</linearGradient>
<linearGradient id="paint1_linear_101_4976" x1="14" y1="9.09155" x2="27" y2="9.09155" gradientUnits="userSpaceOnUse">
<stop stop-color="#21A5B5"/>
<stop offset="1" stop-color="#71B2B4"/>
</linearGradient>
<linearGradient id="paint2_linear_101_4976" x1="28" y1="9.09155" x2="41" y2="9.09155" gradientUnits="userSpaceOnUse">
<stop stop-color="#21A5B5"/>
<stop offset="1" stop-color="#71B2B4"/>
</linearGradient>
<linearGradient id="paint3_linear_101_4976" x1="42" y1="9.09155" x2="55" y2="9.09155" gradientUnits="userSpaceOnUse">
<stop stop-color="#21A5B5"/>
<stop offset="1" stop-color="#71B2B4"/>
</linearGradient>
<linearGradient id="paint4_linear_101_4976" x1="56.6133" y1="8.50786" x2="62.6044" y2="8.50786" gradientUnits="userSpaceOnUse">
<stop stop-color="#21A5B5"/>
<stop offset="1" stop-color="#71B2B4"/>
</linearGradient>
</defs>
</svg>
