<svg width="69" height="13" viewBox="0 0 69 13" fill="none" xmlns="http://www.w3.org/2000/svg">
<path d="M6.31534 0.443986C6.38366 0.279727 6.61634 0.279727 6.68466 0.443986L8.17236 4.02083C8.20116 4.09008 8.26628 4.13739 8.34104 4.14339L12.2025 4.45296C12.3799 4.46718 12.4518 4.68848 12.3167 4.80421L9.37462 7.3244C9.31766 7.37319 9.29278 7.44975 9.31018 7.5227L10.209 11.2909C10.2503 11.4639 10.0621 11.6007 9.91024 11.508L6.60425 9.48868C6.54025 9.44958 6.45975 9.44958 6.39575 9.48868L3.08976 11.508C2.93794 11.6007 2.74969 11.4639 2.79097 11.2909L3.68982 7.5227C3.70722 7.44975 3.68234 7.37319 3.62538 7.3244L0.683324 4.80421C0.548217 4.68848 0.620122 4.46718 0.797453 4.45296L4.65896 4.14339C4.73372 4.13739 4.79884 4.09008 4.82764 4.02083L6.31534 0.443986Z" fill="url(#paint0_linear_101_6477)"/>
<path d="M20.3153 0.443986C20.3837 0.279727 20.6163 0.279727 20.6847 0.443986L22.1724 4.02083C22.2012 4.09008 22.2663 4.13739 22.341 4.14339L26.2025 4.45296C26.3799 4.46718 26.4518 4.68848 26.3167 4.80421L23.3746 7.3244C23.3177 7.37319 23.2928 7.44975 23.3102 7.5227L24.209 11.2909C24.2503 11.4639 24.0621 11.6007 23.9102 11.508L20.6043 9.48868C20.5402 9.44958 20.4598 9.44958 20.3957 9.48868L17.0898 11.508C16.9379 11.6007 16.7497 11.4639 16.791 11.2909L17.6898 7.5227C17.7072 7.44975 17.6823 7.37319 17.6254 7.3244L14.6833 4.80421C14.5482 4.68848 14.6201 4.46718 14.7975 4.45296L18.659 4.14339C18.7337 4.13739 18.7988 4.09008 18.8276 4.02083L20.3153 0.443986Z" fill="url(#paint1_linear_101_6477)"/>
<path d="M34.3153 0.443986C34.3837 0.279727 34.6163 0.279727 34.6847 0.443986L36.1724 4.02083C36.2012 4.09008 36.2663 4.13739 36.341 4.14339L40.2025 4.45296C40.3799 4.46718 40.4518 4.68848 40.3167 4.80421L37.3746 7.3244C37.3177 7.37319 37.2928 7.44975 37.3102 7.5227L38.209 11.2909C38.2503 11.4639 38.0621 11.6007 37.9102 11.508L34.6043 9.48868C34.5402 9.44958 34.4598 9.44958 34.3957 9.48868L31.0898 11.508C30.9379 11.6007 30.7497 11.4639 30.791 11.2909L31.6898 7.5227C31.7072 7.44975 31.6823 7.37319 31.6254 7.3244L28.6833 4.80421C28.5482 4.68848 28.6201 4.46718 28.7975 4.45296L32.659 4.14339C32.7337 4.13739 32.7988 4.09008 32.8276 4.02083L34.3153 0.443986Z" fill="url(#paint2_linear_101_6477)"/>
<path d="M48.3153 0.443986C48.3837 0.279727 48.6163 0.279727 48.6847 0.443986L50.1724 4.02083C50.2012 4.09008 50.2663 4.13739 50.341 4.14339L54.2025 4.45296C54.3799 4.46718 54.4518 4.68848 54.3167 4.80421L51.3746 7.3244C51.3177 7.37319 51.2928 7.44975 51.3102 7.5227L52.209 11.2909C52.2503 11.4639 52.0621 11.6007 51.9102 11.508L48.6043 9.48868C48.5402 9.44958 48.4598 9.44958 48.3957 9.48868L45.0898 11.508C44.9379 11.6007 44.7497 11.4639 44.791 11.2909L45.6898 7.5227C45.7072 7.44975 45.6823 7.37319 45.6254 7.3244L42.6833 4.80421C42.5482 4.68848 42.6201 4.46718 42.7975 4.45296L46.659 4.14339C46.7337 4.13739 46.7988 4.09008 46.8276 4.02083L48.3153 0.443986Z" fill="url(#paint3_linear_101_6477)"/>
<path d="M62.3153 0.443995C62.3837 0.279736 62.6164 0.279736 62.6847 0.443995L64.1724 4.02084C64.2012 4.09009 64.2663 4.1374 64.341 4.1434L68.2026 4.45297C68.3799 4.46719 68.4518 4.68849 68.3167 4.80422L65.3746 7.32441C65.3177 7.3732 65.2928 7.44976 65.3102 7.52271L66.209 11.2909C66.2503 11.4639 66.0621 11.6007 65.9102 11.508L62.6043 9.48868C62.5403 9.44959 62.4598 9.44959 62.3958 9.48869L59.0898 11.508C58.9379 11.6007 58.7497 11.4639 58.791 11.2909L59.6898 7.52271C59.7072 7.44976 59.6823 7.3732 59.6254 7.32441L56.6833 4.80422C56.5482 4.68849 56.6201 4.46719 56.7975 4.45297L60.659 4.1434C60.7337 4.1374 60.7988 4.09009 60.8276 4.02084L62.3153 0.443995Z" fill="#E3E3E3"/>
<path d="M59.0896 11.508L62.3956 9.48869C62.4277 9.46912 62.4638 9.45934 62.5 9.45937V0.320801C62.4247 0.320759 62.3494 0.361823 62.3152 0.443995L60.8275 4.02084C60.7987 4.09009 60.7336 4.1374 60.6588 4.1434L56.7973 4.45297C56.62 4.46719 56.5481 4.68849 56.6832 4.80422L59.6253 7.32441C59.6822 7.3732 59.7071 7.44976 59.6897 7.52271L58.7909 11.2909C58.7496 11.4639 58.9378 11.6007 59.0896 11.508Z" fill="url(#paint4_linear_101_6477)"/>
<defs>
<linearGradient id="paint0_linear_101_6477" x1="-3.37193e-08" y1="6.59155" x2="13" y2="6.59155" gradientUnits="userSpaceOnUse">
<stop stop-color="#21A5B5"/>
<stop offset="1" stop-color="#71B2B4"/>
</linearGradient>
<linearGradient id="paint1_linear_101_6477" x1="14" y1="6.59155" x2="27" y2="6.59155" gradientUnits="userSpaceOnUse">
<stop stop-color="#21A5B5"/>
<stop offset="1" stop-color="#71B2B4"/>
</linearGradient>
<linearGradient id="paint2_linear_101_6477" x1="28" y1="6.59155" x2="41" y2="6.59155" gradientUnits="userSpaceOnUse">
<stop stop-color="#21A5B5"/>
<stop offset="1" stop-color="#71B2B4"/>
</linearGradient>
<linearGradient id="paint3_linear_101_6477" x1="42" y1="6.59155" x2="55" y2="6.59155" gradientUnits="userSpaceOnUse">
<stop stop-color="#21A5B5"/>
<stop offset="1" stop-color="#71B2B4"/>
</linearGradient>
<linearGradient id="paint4_linear_101_6477" x1="56.613" y1="6.00835" x2="62.6041" y2="6.00835" gradientUnits="userSpaceOnUse">
<stop stop-color="#21A5B5"/>
<stop offset="1" stop-color="#71B2B4"/>
</linearGradient>
</defs>
</svg>
