<svg width="25" height="24" viewBox="0 0 25 24" fill="none" xmlns="http://www.w3.org/2000/svg">
<path fill-rule="evenodd" clip-rule="evenodd" d="M12.7998 4C10.8476 4 9.04797 4.161 7.60351 4.35177C6.30353 4.52346 5.32327 5.50372 5.15158 6.80371C4.96081 8.24816 4.7998 10.0478 4.7998 12C4.7998 13.9522 4.96081 15.7518 5.15158 17.1963C5.32327 18.4963 6.30353 19.4765 7.60351 19.6482C9.04797 19.839 10.8476 20 12.7998 20C14.752 20 16.5516 19.839 17.9961 19.6482C19.2961 19.4765 20.2763 18.4963 20.448 17.1963C20.6388 15.7518 20.7998 13.9522 20.7998 12C20.7998 10.0478 20.6388 8.24816 20.448 6.80371C20.2763 5.50372 19.2961 4.52346 17.9961 4.35177C16.5516 4.16101 14.752 4 12.7998 4ZM7.34164 2.36899C5.14485 2.65912 3.45893 4.34504 3.1688 6.54184C2.96934 8.05208 2.7998 9.94127 2.7998 12C2.7998 14.0587 2.96934 15.9479 3.1688 17.4582C3.45893 19.655 5.14485 21.3409 7.34164 21.631C8.85189 21.8305 10.7411 22 12.7998 22C14.8585 22 16.7477 21.8305 18.258 21.631C20.4548 21.3409 22.1407 19.655 22.4308 17.4582C22.6303 15.9479 22.7998 14.0587 22.7998 12C22.7998 9.94127 22.6303 8.05208 22.4308 6.54184C22.1407 4.34504 20.4548 2.65912 18.258 2.36899C16.7477 2.16953 14.8585 2 12.7998 2C10.7411 2 8.85189 2.16953 7.34164 2.36899Z" fill="#B1B5C4"/>
<path fill-rule="evenodd" clip-rule="evenodd" d="M12.7998 17C13.3521 17 13.7998 16.5523 13.7998 16V13H16.7998C17.3521 13 17.7998 12.5523 17.7998 12C17.7998 11.4477 17.3521 11 16.7998 11H13.7998V8C13.7998 7.44772 13.3521 7 12.7998 7C12.2475 7 11.7998 7.44772 11.7998 8V11H8.7998C8.24752 11 7.7998 11.4477 7.7998 12C7.7998 12.5523 8.24752 13 8.7998 13H11.7998V16C11.7998 16.5523 12.2475 17 12.7998 17Z" fill="#B1B5C4"/>
</svg>
